<?xml version="1.0" encoding="UTF-8"?>
<svg id="Layer_2" data-name="Layer 2" xmlns="http://www.w3.org/2000/svg" viewBox="0 0 296.54 188.66">
  <defs>
    <style>
      .cls-1 {
        stroke: #231f20;
        stroke-miterlimit: 10;
        stroke-width: 4.21px;
      }

      .cls-1, .cls-2 {
        fill: #231f20;
      }

      .cls-3 {
        fill: #c87161;
      }

      .cls-3, .cls-2 {
        stroke-width: 0px;
      }
    </style>
  </defs>
  <g id="Layer_1-2" data-name="Layer 1">
    <g>
      <path class="cls-3" d="M281.87,41.65c20.44-.35,6.51-16.56,5.51-28.96-13.12-4.89-27.86-15.16-44.46-8.84-48.17,25.08-58.17,27.97-110.62,33.56-21.05,10.49-181.59,79.57-111.96,148.65,7.74,1.2,18.13-5.11,17.69-7.15-51.85-33.76,34.64-96.63,49.87-23.86l146.04-84.1c-38.82-40.51,29.98-92.6,47.94-29.3h0Z"/>
      <path class="cls-2" d="M281.21,44.06c42.56-3.64-10.41-78.05-73.98-25.12-24.1,17.29-57.34,6.68-84.05,19.2C83.78,63.47-9.3,99.59.76,154.03c8.04,9.98,10.24,31.97,23,34.63,14.43-2.94,24.92-9.29,6.69-15.78-22.65-56.91,44.73-64.43,58.67-15.68,48.57-28.02,97.25-55.9,145.79-83.95,4.01-5.81-8.54-12.95-8.66-20.21-11.11-25.93,26.83-54.75,44.38-29.28,4.02,6.41,2.42,17.13,10.57,20.27,3.08.96,4.4-3.87,1.33-4.82-14.13-64.04-93.89-9.52-50.4,33.5,2.55-8.48-9.94,3.32-14.1,4.47-43.8,25.23-87.65,50.45-131.43,75.67,7.18-49.76-91.81-43.57-60.78,22.06,1.64,3.79,11.57,8.76,9.85,3.38-13.84,12.23-16.43.5-23.64-13.51C-22.39,111.16,82.43,71.76,117.75,46.1c23.84-14.19,55.01-7.43,80.09-16.41,44.64-25.67,44.93-31.15,91.68-15.76-10.66-4.08.12,17.27,4.44,21.35.7-7.07-2.74.82-5.98,2.11-2.2,2.28-13.3,1.74-6.78,6.65v.02Z"/>
    </g>
    <path class="cls-2" d="M184.1,42.95c-40.8,20.37-83.5,46.21-126.9,60.48,32.6-36.73,73.75-61.2,126.9-60.48Z"/>
    <path class="cls-1" d="M265.77,55.03c-8.24,8.78-24.29,8.01-32.11-1.33-19.06-43.59,57.15-40.33,32.11,1.33Z"/>
    <path class="cls-1" d="M76.61,160.23c-3.57,13.51-20.38,21.58-33.51,16.37-43.53-34,36.1-72.69,33.51-16.37Z"/>
  </g>
</svg>