<?xml version="1.0" encoding="UTF-8"?>
<svg id="Layer_2" data-name="Layer 2" xmlns="http://www.w3.org/2000/svg" viewBox="0 0 163.89 153.79">
  <defs>
    <style>
      .cls-1 {
        fill: #0d0708;
      }

      .cls-1, .cls-2 {
        stroke: #231f20;
        stroke-miterlimit: 10;
      }

      .cls-3 {
        fill: #a0cf6e;
      }

      .cls-3, .cls-4 {
        stroke-width: 0px;
      }

      .cls-2 {
        fill: #fff;
        stroke-width: 4.6px;
      }

      .cls-4 {
        fill: #231f20;
      }
    </style>
  </defs>
  <g id="Layer_1-2" data-name="Layer 1">
    <g>
      <path class="cls-3" d="M69.35,9.62C41.33,3.58,23.21,23.28,24.82,49.33c-12.96-.44-23.45,12.88-23.45,25.84,0,11.67,5.48,32.3,26.58,32.3,8.93,0,2.8,14.12,10.36,18.87,7.54-.98,8.71,18.26,19.87,20.61,12.03,6.35,28.27,5.68,38.34-3.68,10.96,7.61,28.67.4,34.04-13.27,16.38-40.1,7.5-5.09,27.67-21.85,15.72-52.02-35.92-24.83-17.06-43.6,11.72-15.3-8.53-31.44-19.36-26.9,14.91-41.27-59.72-48.61-55.46-9.2"/>
      <path class="cls-4" d="M69.35,7.12C38.81.1,20.15,25.28,22.42,48.66c-25.79-8.65-35.87,63.73,5.81,61.3,1.24.08,1.58.49,2.08,1.38,1.46,6.06,1.91,21.46,12.53,16.32-10.04,13.55,37.99,39.11,54.06,18.21,15.84,13.27,43.9-14.54,44.97-38.19-9.05,9.73,28.64,15.58,20.99-19.06-.09-15.97-15.54-21.5-29.04-17.86,11.72,7.98,19.72-29.73,2.36-33.93-20.83-9.06-14.02,9.98-11.73-.81,13.7-43.96-66.51-49.33-60.54-6.95.9,3.14,5.73,1.76,4.83-1.33-.25-39.98,66-21.86,50.37,8.82-2.63,8.91,29.86-3.75,21.54,23.81-26.29,31.73,27.86-5.69,16.69,43.73-4.66,15.71-16.32-3.89-20.5,3.56-2.94,17.77-18.76,45.17-38.74,33.55-7.46.54-14.17,9.55-23.52,7.3-21.81,4.7-30.45-31.14-35.05-24.38-3.64-2.79-2.91-7.66-3.8-11.73-7.3-13.21-32.3-7.68-31.54-31.9-6.75-27.11,25.4-22.54,24.88-39.98C20.21,4.47,78.65,16.85,69.34,7.11h.01Z"/>
    </g>
    <g>
      <path class="cls-2" d="M42.39,47.11c-3.46,15.31-14.1,49.57,7.78,50.22,30.61-6.69,24.54-50.76-7.78-50.22Z"/>
      <path class="cls-1" d="M64.06,112.34c-8.82,5.32,8.53,17.4,13.29,15.36,7.66-4.4,13.15-12.89,23.09-16.65-4.66-6.12-26.35,2.39-36.38,1.29Z"/>
      <path class="cls-3" d="M61.98,71.58c.7,6.52-7.82,9.67-9.49,2.47-2.54-7.55,9.31-10.73,9.49-2.47Z"/>
    </g>
    <g>
      <path class="cls-2" d="M113.53,49.65c4.68,16.57,14.2,57.8-13.65,48.73-24.21-14.74-15.95-47.96,13.65-48.73Z"/>
      <path class="cls-3" d="M93.94,74.12c-.7,6.52,7.82,9.67,9.49,2.47,2.54-7.55-9.31-10.73-9.49-2.47Z"/>
    </g>
  </g>
</svg>