<?xml version="1.0" encoding="UTF-8"?>
<svg id="Layer_2" data-name="Layer 2" xmlns="http://www.w3.org/2000/svg" viewBox="0 0 65.55 61.78">
  <defs>
    <style>
      .cls-1 {
        fill: #0d0708;
      }

      .cls-1, .cls-2 {
        stroke: #231f20;
        stroke-miterlimit: 10;
      }

      .cls-3 {
        fill: #a0cf6e;
      }

      .cls-3, .cls-4 {
        stroke-width: 0px;
      }

      .cls-2 {
        fill: #fff;
        stroke-width: 4.6px;
      }

      .cls-4 {
        fill: #231f20;
      }
    </style>
  </defs>
  <g id="Layer_1-2" data-name="Layer 1">
    <g>
      <path class="cls-3" d="M28.24,5.06c-10.68-2.29-17.59,5.21-16.98,15.14-4.94-.17-8.94,4.91-8.94,9.85.33,15.23,10.34,6.95,14.09,19.52,4.06,4.42,12.45,14.5,21.35,7.1,1.31-1.6,4.8,1.82,7.89.33,6.5-1.1,7.46-15.55,11.25-13.17,10.69,3.17,7.2-19.81-3.8-14.52,7.19-5.55,2.32-15.69-4.83-13.56C53.95.02,25.49-2.79,27.12,12.24"/>
      <path class="cls-4" d="M28.24,2.56C14.98-.79,7.57,12.52,8.85,19.54l2.41-1.84c-15.81.35-14.45,27.19.85,27.17-.17-1.63.26,9.82,6.44,6.71-10.21-2.59,12.16,18.74,21.64,6.24-1.12.45-1.82.9-2.85.37,10.04,9.7,26.65-18.83,16.34-13.56,15.4,11.38,16.68-24.43-1.26-17.72,3.11,6.96,6.87-.71,6.91-5.41,1.15-7.38-16.49-12.89-9.66-3.69C60.32-1.65,21.76-7.85,24.68,12.92c5.97,6.78,3.18-5.76,7.64-6.72,20.88-7.03,8.58,12.78,16.25,12.26,11.17-1.3,1.64,8.25,2.55,12.39,4.48,1.69,11.04-.5,9.51,7.49.23,1.59-.67,3.96-2,3.73-7.54-7.19-6.63,8.53-12.18,11.5-2.82,2.86-5.86-.11-8.35.04-3.18,2.13-6.71,3.84-10.69,2.52-6.71-.12-5.34-11.34-11.67-8.94.02-.05,2.32.4,1.89.19-.68-1.14-.26-3.51-1.37-5.41-9.63-1.85-17.84-15.29-4.99-19.24,5.41-1.18,1.48-8.16,4.19-11.42,1.61-6.23,22.22-1.3,12.78-8.74h0Z"/>
    </g>
    <g>
      <path class="cls-2" d="M17.95,19.35c-1.32,5.84-5.38,18.91,2.97,19.16,11.71-2.58,9.31-19.32-2.97-19.16Z"/>
      <path class="cls-1" d="M26.22,44.23c-3.36,2.02,3.26,6.63,5.07,5.85,2.92-1.68,5.02-4.92,8.8-6.35-1.78-2.33-10.07.91-13.87.5Z"/>
      <path class="cls-3" d="M25.42,28.68c.27,2.49-2.98,3.69-3.62.94-.97-2.88,3.55-4.1,3.62-.94Z"/>
    </g>
    <g>
      <path class="cls-2" d="M45.08,20.32c1.43,5.73,5.44,20.26-3.63,18.93-11.03-3.46-8.31-18.96,3.63-18.93Z"/>
      <path class="cls-3" d="M37.61,29.65c-.27,2.49,2.98,3.69,3.62.94.97-2.88-3.55-4.1-3.62-.94Z"/>
    </g>
  </g>
</svg>