<?xml version="1.0" encoding="UTF-8"?>
<svg id="Layer_2" data-name="Layer 2" xmlns="http://www.w3.org/2000/svg" viewBox="0 0 1540.5 779.83">
  <defs>
    <style>
      .cls-1 {
        letter-spacing: -.04em;
      }

      .cls-2 {
        letter-spacing: .02em;
      }

      .cls-3 {
        letter-spacing: .02em;
      }

      .cls-4 {
        letter-spacing: -.02em;
      }

      .cls-5 {
        letter-spacing: 2.16em;
      }

      .cls-6 {
        letter-spacing: 0em;
      }

      .cls-7 {
        letter-spacing: -.06em;
      }

      .cls-8 {
        letter-spacing: -.02em;
      }

      .cls-9 {
        letter-spacing: .02em;
      }

      .cls-10 {
        letter-spacing: -.05em;
      }

      .cls-11 {
        letter-spacing: -.02em;
      }

      .cls-12 {
        letter-spacing: -.04em;
      }

      .cls-13 {
        stroke-width: 0px;
      }

      .cls-13, .cls-14 {
        fill: #231f20;
      }

      .cls-15 {
        letter-spacing: .02em;
      }

      .cls-16 {
        letter-spacing: 1.28em;
      }

      .cls-17 {
        letter-spacing: 3.15em;
      }

      .cls-14 {
        font-family: Marydale-Bold, Marydale;
        font-size: 30px;
        font-weight: 700;
      }

      .cls-18 {
        letter-spacing: -.02em;
      }

      .cls-19 {
        letter-spacing: -.03em;
      }

      .cls-20 {
        letter-spacing: -.03em;
      }
    </style>
  </defs>
  <g id="Layer_1-2" data-name="Layer 1">
    <g>
      <path class="cls-13" d="M1258.68,104.32c-.6,0-1.26-.21-1.53-.54-.06-.06-.36-.15-.81-.33-4.98-1.98-9.72-4.53-13.83-8.04-.12,1.41-.33,4.23-.39,6.45,0,.6.39,1.17.39,1.8,0,1.02-.75,1.5-1.62,1.5-.45,0-.87-.15-1.17-.48-.12-.15-.15-.69-.15-1.53,0-.75.03-1.71.12-2.79.15-2.1.39-4.71.51-6.96,0,0-.33-.15-.33-.6,0-.21.36-.45.36-.45.09-.75.33-3.27.33-4.35,0-.27-.06-.54-.06-1.02,0-1.56.81-2.31,1.62-2.31.48,0,.96.27,1.29.78,1.17-.51,4.95-1.92,7.83-1.92,1.62,0,3.51.6,3.51,2.58,0,2.61-4.32,5.31-10.38,7.77,2.7,2.43,10.89,7.17,13.92,7.56.45.06,1.74.51,1.74,1.65,0,.84-.57,1.23-1.35,1.23ZM1251.09,85.84c-1.92,0-5.91.93-6.87,1.8-.18.15-.36.24-.57.24-.03,0-.06-.03-.09-.03-.15,1.32-.45,2.61-.63,3.93,1.95-.45,9.21-3.51,9.21-5.61,0-.24-.42-.33-1.05-.33Z"/>
      <path class="cls-13" d="M1270.35,99.91c-.42.24-.93.72-1.32,1.02-1.71,1.29-4.77,3.51-7.26,3.51-2.7,0-4.8-3.12-4.8-5.79,0-3.99,4.47-6.9,8.4-6.9,1.08,0,2.19.21,3,.69.18.12.3.21.3.33,0,.9-1.83,3.3-4.26,4.32-2.55,1.08-3.78.99-4.92,1.17v.39c0,1.44,1.02,3.48,2.67,3.48,2.01,0,6.12-3.3,6.48-3.72.3-.54.69-1.23,1.32-1.23s1.26.63,1.26,1.29c0,.57-.42,1.14-.87,1.44ZM1265.22,94.03s0-.06-.12-.06c-.36,0-1.26.06-2.49.63-1.17.51-2.13,1.47-2.13,1.47,0,0,1.8-.3,2.73-.72,1.05-.48,1.68-.99,1.95-1.23.03-.03.06-.06.06-.09Z"/>
      <path class="cls-13" d="M1285.92,85.87c-.18.48-1.08,7.8-1.32,12.06.93.27,1.29.72,1.29,1.17,0,.66-.72,1.35-1.77,1.71,0,1.44-.15,3.12-.93,3.12-.96,0-1.47-.78-1.62-1.71-1.26.78-4.41,2.52-6.87,2.52-2.13,0-3.33-1.53-3.33-3.54,0-3.75,4.68-7.86,7.41-7.86,1.44,0,2.73.93,3.6,2.28.33-2.7.96-8.67.96-9.69,0-.39-.15-.78-.15-1.26,0-.99.48-1.38,1.05-1.38.81,0,1.8.81,1.8,1.89,0,.24-.03.45-.12.69ZM1278.72,95.65c-2.16,0-4.89,3.72-4.89,5.67,0,.66.39,1.17,1.14,1.17,1.83,0,5.22-2.34,6.18-2.91-.18-1.14-.72-3.93-2.43-3.93Z"/>
      <path class="cls-13" d="M1292.76,103.99c-.39.15-.75.21-1.08.21-3.75,0-3.84-8.37-3.84-11.16v-.36c0-.93.54-1.35,1.11-1.35.69,0,1.44.57,1.44,1.53,0,.36-.03.81-.03,1.29,0,2.91.3,7.38,1.26,7.38.09,0,.21-.06.36-.21,1.23-1.29,1.5-6.81,1.53-7.53.03-1.02.6-1.47,1.2-1.47.72,0,1.5.63,1.5,1.59,0,1.26-1.5,9.36-3.45,10.08Z"/>
      <path class="cls-13" d="M1301.7,106.75c-.81,0-1.44-.48-1.44-1.14,0-.24.09-.48.27-.72.36-.54,4.2-1.71,4.17-2.4-.42-.84-6.75-1.2-6.75-5.46,0-3.15,2.97-5.73,5.34-7.59.42-.36.96-.48,1.47-.48,1.2,0,2.49.72,2.49,1.53,0,.51-.33.96-1.08.96-.48,0-.66-.09-1.05-.24-.9.03-1.8,1.14-3.09,2.34-1.29,1.2-1.68,2.64-1.68,3.42,0,2.97,7.02,2.1,7.02,5.67,0,1.53-4.5,4.11-5.67,4.11Z"/>
      <path class="cls-13" d="M1321.29,99.91c-.42.24-.93.72-1.32,1.02-1.71,1.29-4.77,3.51-7.26,3.51-2.7,0-4.8-3.12-4.8-5.79,0-3.99,4.47-6.9,8.4-6.9,1.08,0,2.19.21,3,.69.18.12.3.21.3.33,0,.9-1.83,3.3-4.26,4.32-2.55,1.08-3.78.99-4.92,1.17v.39c0,1.44,1.02,3.48,2.67,3.48,2.01,0,6.12-3.3,6.48-3.72.3-.54.69-1.23,1.32-1.23s1.26.63,1.26,1.29c0,.57-.42,1.14-.87,1.44ZM1316.16,94.03s0-.06-.12-.06c-.36,0-1.26.06-2.49.63-1.17.51-2.13,1.47-2.13,1.47,0,0,1.8-.3,2.73-.72,1.05-.48,1.68-.99,1.95-1.23.03-.03.06-.06.06-.09Z"/>
      <path class="cls-13" d="M1334.19,93.82c-.42,0-.72-.24-1.11-.24-.15,0-.33.06-.54.18-1.68.96-3.75,3.3-5.73,6.36-.96,1.44-.57,3.6-1.08,4.23-.27.36-.63.48-.99.48-.84,0-1.53-.51-1.53-1.44,0-.27.03-.66.09-1.02.27-1.53.51-3.33.51-5.1,0-1.56-.18-3.12-.66-4.44-.03-.09-.06-.21-.06-.33,0-.6.69-1.05,1.38-1.05,1.59,0,1.68,2.01,1.68,3.42,0,.99.03,1.53.03,2.19,1.02-1.29,3.63-4.29,5.22-5.19.57-.33,1.2-.54,1.92-.54.93,0,2.1.27,2.1,1.47,0,.57-.6,1.02-1.23,1.02Z"/>
      <path class="cls-13" d="M1246.29,142.75c-.81,0-1.44-.48-1.44-1.14,0-.24.09-.48.27-.72.36-.54,4.2-1.71,4.17-2.4-.42-.84-6.75-1.2-6.75-5.46,0-3.15,2.97-5.73,5.34-7.59.42-.36.96-.48,1.47-.48,1.2,0,2.49.72,2.49,1.53,0,.51-.33.96-1.08.96-.48,0-.66-.09-1.05-.24-.9.03-1.8,1.14-3.09,2.34-1.29,1.2-1.68,2.64-1.68,3.42,0,2.97,7.02,2.1,7.02,5.67,0,1.53-4.5,4.11-5.67,4.11Z"/>
      <path class="cls-13" d="M1270.44,139.36c-.27.09-.63.3-1.17.48-.81.3-1.65.42-2.49.42-3.87,0-7.89-2.67-10.56-4.89-.12.87-.21,1.83-.21,2.79,0,.66.03,1.32.18,1.95.09.42.21.84.21,1.23,0,.66-.36,1.17-1.53,1.17-.9,0-1.23-1.92-1.23-4.56,0-6.12,1.86-16.32,3.03-16.8.21-.09.42-.12.6-.12.81,0,1.38.72,1.38,1.5,0,.15,0,.3-.36,1.17-.75,1.8-1.26,4.77-1.56,6.78,2.04-.63,9.03-2.73,10.44-2.73.57,0,1.05.24,1.05.96,0,.42-.21.84-.57,1.08-.36.24-2.94.72-3.42.84-1.74.42-4.17,1.11-7.2,2.34.84.81,2.91,2.58,6.39,4.17,1.47.66,2.67.87,3.57.87,1.68,0,2.43-.75,2.49-.84.27-.45.66-.63,1.05-.63.69,0,1.41.6,1.41,1.29,0,.54-.39,1.11-1.5,1.53Z"/>
      <path class="cls-13" d="M1276.08,147.01c-1.92,6.54-6.33,8.79-9.9,8.79s-6.54-2.55-6.54-6.3c0-.9.33-2.97,1.14-2.97.6,0,.66.63.66,1.29v.75c0,2.82,1.23,4.92,4.71,4.92s6.9-3.54,7.56-8.01c.21-1.44.3-2.94.3-4.35,0-3.48-.57-6.84-1.23-10.38-.06-.27-.33-.39-.33-.93,0-.69.6-1.11,1.32-1.11.39,0,.78.12,1.08.42.6.6,1.77,7.2,1.77,12.69,0,1.98-.15,3.84-.54,5.19ZM1274.91,122.23c-.87,0-1.41-.96-1.41-1.86,0-.72.45-1.23,1.23-1.23s1.29.69,1.29,1.56c0,1.05-.54,1.53-1.11,1.53Z"/>
      <path class="cls-13" d="M1291.89,135.91c-.42.24-.93.72-1.32,1.02-1.71,1.29-4.77,3.51-7.26,3.51-2.7,0-4.8-3.12-4.8-5.79,0-3.99,4.47-6.9,8.4-6.9,1.08,0,2.19.21,3,.69.18.12.3.21.3.33,0,.9-1.83,3.3-4.26,4.32-2.55,1.08-3.78.99-4.92,1.17v.39c0,1.44,1.02,3.48,2.67,3.48,2.01,0,6.12-3.3,6.48-3.72.3-.54.69-1.23,1.32-1.23s1.26.63,1.26,1.29c0,.57-.42,1.14-.87,1.44ZM1286.76,130.03s0-.06-.12-.06c-.36,0-1.26.06-2.49.63-1.17.51-2.13,1.47-2.13,1.47,0,0,1.8-.3,2.73-.72,1.05-.48,1.68-.99,1.95-1.23.03-.03.06-.06.06-.09Z"/>
      <path class="cls-13" d="M1304.79,129.82c-.42,0-.72-.24-1.11-.24-.15,0-.33.06-.54.18-1.68.96-3.75,3.3-5.73,6.36-.96,1.44-.57,3.6-1.08,4.23-.27.36-.63.48-.99.48-.84,0-1.53-.51-1.53-1.44,0-.27.03-.66.09-1.02.27-1.53.51-3.33.51-5.1,0-1.56-.18-3.12-.66-4.44-.03-.09-.06-.21-.06-.33,0-.6.69-1.05,1.38-1.05,1.59,0,1.68,2.01,1.68,3.42,0,.99.03,1.53.03,2.19,1.02-1.29,3.63-4.29,5.22-5.19.57-.33,1.2-.54,1.92-.54.93,0,2.1.27,2.1,1.47,0,.57-.6,1.02-1.23,1.02Z"/>
      <path class="cls-13" d="M1321.41,139.75c-.42,0-.81-.15-1.05-.6-.24-.42-.3-1.26-.3-2.31,0-1.68.18-3.81.18-5.37,0-1.02-.09-2.19-.45-2.19-.75,0-4.11,9.27-4.38,10.2-.3,1.17-.69,1.62-1.17,1.62-1.47,0-1.47-1.8-1.5-2.43-.03-1.62-.03-6.99-.3-8.34-.03-.18-.09-.27-.21-.3-.27,0-.63,1.02-1.23,2.34-.69,1.53-1.86,4.65-1.86,6.75,0,.3.06.57.06.96,0,.69-.78.96-1.41.96-1.14,0-1.32-.54-1.32-1.68,0-1.89.51-5.28.51-7.47,0-.54-.09-1.08-.09-1.71,0-.81.39-1.44,1.26-1.44.69,0,1.38.51,1.47,1.23.72-1.29,2.04-3.3,2.82-3.3.69,0,1.47.69,1.77,1.23.3.51.54,2.28.72,5.73,1.2-2.4,3.45-6.93,5.19-6.93.96,0,2.01,1.35,2.19,2.01.21.78.27,2.94.27,4.89,0,1.2-.06,2.43-.06,3.69,0,.42.27.87.27,1.35,0,.78-.69,1.11-1.38,1.11Z"/>
      <path class="cls-13" d="M1338.06,136.75c0,.81.36,1.38.36,1.98,0,.78-.63,1.44-1.29,1.44-1.32,0-1.32-1.89-1.32-2.91,0-1.62.27-3.51.27-5.94v-.63c0-.63.03-1.44.24-2.07-.51,0-.93-.09-1.17-.09-1.65,0-3,.33-4.11.57-.24,1.68-.66,5.7-.66,8.28,0,.78.03,1.44.12,1.86.06.21.09.39.09.57,0,.78-.51,1.14-1.08,1.14-.78,0-1.71-.66-1.71-2.04,0-1.29,0-3.09.33-6.03.18-1.68.3-2.37.39-3.24-1.53.39-1.77.72-3.06,1.56-.18.12-.39.24-.63.24-.66,0-1.44-.6-1.44-1.32,0-.39.18-.75.54-1.02.9-.69,3.9-1.71,4.98-1.98.12-.69.66-4.17.66-5.43,0-.3-.03-.69-.03-1.08,0-.78.15-1.53,1.11-1.53,1.05,0,1.35,1.23,1.35,2.7,0,1.83-.48,4.08-.6,4.89,1.11-.18,2.04-.27,3.03-.27.39,0,.81,0,1.26.06,1.05.12,1.65.66,1.68,1.17.72.03,1.35.75,1.35,1.59s-.66,6.03-.66,7.53ZM1338.57,120.61c-.36.99-.75,1.26-.84,2.37-.03.63-.6,1.05-1.11,1.05-.63,0-.93-.6-.93-1.23,0-.99.6-2.34.87-3.06.33-.81.81-1.11,1.2-1.11.57,0,1.02.54,1.02,1.05,0,.3-.09.57-.21.93Z"/>
      <path class="cls-13" d="M1355.37,121.87c-.18.48-1.08,7.8-1.32,12.06.93.27,1.29.72,1.29,1.17,0,.66-.72,1.35-1.77,1.71,0,1.44-.15,3.12-.93,3.12-.96,0-1.47-.78-1.62-1.71-1.26.78-4.41,2.52-6.87,2.52-2.13,0-3.33-1.53-3.33-3.54,0-3.75,4.68-7.86,7.41-7.86,1.44,0,2.73.93,3.6,2.28.33-2.7.96-8.67.96-9.69,0-.39-.15-.78-.15-1.26,0-.99.48-1.38,1.05-1.38.81,0,1.8.81,1.8,1.89,0,.24-.03.45-.12.69ZM1348.17,131.65c-2.16,0-4.89,3.72-4.89,5.67,0,.66.39,1.17,1.14,1.17,1.83,0,5.22-2.34,6.18-2.91-.18-1.14-.72-3.93-2.43-3.93Z"/>
      <path class="cls-13" d="M1369.95,135.91c-.42.24-.93.72-1.32,1.02-1.71,1.29-4.77,3.51-7.26,3.51-2.7,0-4.8-3.12-4.8-5.79,0-3.99,4.47-6.9,8.4-6.9,1.08,0,2.19.21,3,.69.18.12.3.21.3.33,0,.9-1.83,3.3-4.26,4.32-2.55,1.08-3.78.99-4.92,1.17v.39c0,1.44,1.02,3.48,2.67,3.48,2.01,0,6.12-3.3,6.48-3.72.3-.54.69-1.23,1.32-1.23s1.26.63,1.26,1.29c0,.57-.42,1.14-.87,1.44ZM1364.82,130.03s0-.06-.12-.06c-.36,0-1.26.06-2.49.63-1.17.51-2.13,1.47-2.13,1.47,0,0,1.8-.3,2.73-.72,1.05-.48,1.68-.99,1.95-1.23.03-.03.06-.06.06-.09Z"/>
      <path class="cls-13" d="M1380.27,141.79c-.84,0-1.77-.72-1.77-1.68,0-.18.03-.36.09-.54,0-1.26-.27-2.7-.3-4.59,0-.96.03-1.95.03-2.88s-.03-1.71-.12-1.71c-2.19,2.79-3.72,9.9-4.47,10.2-.39.18-.69.24-.93.24-.93,0-1.11-.87-1.11-1.8,0-.27,0-.84.03-1.08.36-3.57.15-6.33.6-9.57.12-.78.54-1.02,1.02-1.02.51,0,1.08.3,1.35.6.15.18.21.48.21.87,0,.93-.3,2.31-.3,3.54,1.17-1.98,2.85-5.16,4.2-5.16,1.59,0,2.04,3.12,2.04,7.68,0,3.18,0,4.02.06,4.23.24.45.54,1.02.54,1.56,0,.69-.51,1.11-1.17,1.11Z"/>
      <path class="cls-13" d="M1276.9,157.87c-.18.48-1.08,7.8-1.32,12.06.93.27,1.29.72,1.29,1.17,0,.66-.72,1.35-1.77,1.71,0,1.44-.15,3.12-.93,3.12-.96,0-1.47-.78-1.62-1.71-1.26.78-4.41,2.52-6.87,2.52-2.13,0-3.33-1.53-3.33-3.54,0-3.75,4.68-7.86,7.41-7.86,1.44,0,2.73.93,3.6,2.28.33-2.7.96-8.67.96-9.69,0-.39-.15-.78-.15-1.26,0-.99.48-1.38,1.05-1.38.81,0,1.8.81,1.8,1.89,0,.24-.03.45-.12.69ZM1269.7,167.65c-2.16,0-4.89,3.72-4.89,5.67,0,.66.39,1.17,1.14,1.17,1.83,0,5.22-2.34,6.18-2.91-.18-1.14-.72-3.93-2.43-3.93Z"/>
      <path class="cls-13" d="M1282.27,156.61c-.36.99-.75,1.26-.84,2.37-.03.63-.6,1.05-1.11,1.05-.63,0-.93-.6-.93-1.23,0-.99.6-2.34.87-3.06.33-.81.81-1.11,1.2-1.11.57,0,1.02.54,1.02,1.05,0,.3-.09.57-.21.93ZM1281.76,172.75c0,.81.36,1.38.36,1.98,0,.78-.63,1.44-1.29,1.44-1.32,0-1.32-1.89-1.32-2.91,0-1.62.18-3.51.27-5.94.03-.96-.15-3.6,1.26-3.69.75,0,1.38.72,1.38,1.59s-.66,6.03-.66,7.53Z"/>
      <path class="cls-13" d="M1294.24,177.79c-.84,0-1.77-.72-1.77-1.68,0-.18.03-.36.09-.54,0-1.26-.27-2.7-.3-4.59,0-.96.03-1.95.03-2.88s-.03-1.71-.12-1.71c-2.19,2.79-3.72,9.9-4.47,10.2-.39.18-.69.24-.93.24-.93,0-1.11-.87-1.11-1.8,0-.27,0-.84.03-1.08.36-3.57.15-6.33.6-9.57.12-.78.54-1.02,1.02-1.02.51,0,1.08.3,1.35.6.15.18.21.48.21.87,0,.93-.3,2.31-.3,3.54,1.17-1.98,2.85-5.16,4.2-5.16,1.59,0,2.04,3.12,2.04,7.68,0,3.18,0,4.02.06,4.23.24.45.54,1.02.54,1.56,0,.69-.51,1.11-1.17,1.11Z"/>
      <path class="cls-13" d="M1311.79,176.41c-2.25,0-3.51-2.64-3.51-4.77,0-.78.15-1.68.51-2.49,1.62-3.63,3.33-5.19,5.1-5.31h.15c2.64,0,4.38,2.67,4.38,5.37,0,4.26-3.96,7.2-6.63,7.2ZM1314.64,166.33c-1.86,0-3.96,3.57-3.96,5.28,0,.75.36,2.43,1.5,2.43,1.05,0,2.67-1.29,3.18-2.31.48-.93.78-1.86.78-2.76,0-.84-.36-2.64-1.5-2.64Z"/>
      <path class="cls-13" d="M1338.22,179.23c-.63,0-1.26-.24-1.53-.84-2.22,0-3.66.12-5.13.3.21.69.33,1.47.33,2.25,0,5.31-4.32,12.12-9.51,12.12-2.88,0-6.09-2.22-6.09-5.61,0-1.53.63-3.18,2.04-4.77,3.33-3.69,6-4.68,9.84-5.61-.96-1.11-2.28-1.53-3.66-1.53-.93,0-1.86.18-2.7.51-.51.18-1.02.48-1.56.48-.57,0-1.35-.48-1.35-1.14,0-.57.54-1.11,1.2-1.35-.15-.45-.21-.84-.21-1.23,0-2.1,1.71-3.63,3.03-5.25-.45-.39-.63-.81-.63-1.14,0-.57.51-.96,1.08-.96.45,0,.75.39,1.26.39.66,0,1.95-.21,3.3-.39.69-.09,2.73-.39,3.93-.39.63,0,1.74.27,1.74,1.11,0,.48-.51.96-1.53.96-.15,0-.3-.03-.51-.03-1.05,0-2.04.27-3.09.42.78.78,1.11,1.59,1.11,2.37,0,1.32-.99,2.64-2.37,3.81,1.53.63,2.46,1.53,3.36,2.88.81-.09,2.58-.27,4.35-.27,1.02,0,5.19.06,5.19,1.74,0,.66-.96,1.17-1.89,1.17ZM1329.16,179.14c-1.29.24-6,1.38-8.94,4.98-1.02,1.29-1.53,2.37-1.53,3.3,0,1.77,1.95,3.27,3.69,3.27,3.51,0,7.08-5.28,7.08-9.63,0-.66-.09-1.32-.3-1.92ZM1325.59,168.13c-.93.84-1.65,1.62-2.16,2.28-.51.72-1.02,1.5-1.02,2.37,0,.18.03.39.06.6,1.47-.36,4.68-1.74,4.68-3.42-.06-1.23-1.17-1.71-1.56-1.83Z"/>
      <path class="cls-13" d="M1353.16,175.03c-.39.36-1.2.99-1.56,1.47-.27.39-.63.54-.96.54-.63,0-1.2-.51-1.23-1.29-.33-.06-.75-.24-.96-.63-.03-.09-.06-.84-.06-1.92,0-1.8.09-4.59.36-6.69-.3-.3-.42-.6-.42-.9,0-.51.36-1.02.87-1.32.18-.75.87-3.63.87-5.76,0-.39-.24-.81-.24-1.38,0-.75.45-1.17.96-1.17.78,0,1.74.87,1.74,2.73,0,1.74-.57,3.42-.9,5.13,1.41.03,5.16.42,6.42,3.3.12.27.15.54.15.84,0,2.4-3.45,5.64-5.04,7.05ZM1351.75,166.24h-.54c-.36,1.65-.51,3.3-.51,4.98,0,.96.06,1.92.15,2.88,1.41-1.11,4.86-4.08,4.86-5.91,0-1.56-2.73-1.95-3.96-1.95Z"/>
      <path class="cls-13" d="M1370.62,165.82c-.42,0-.72-.24-1.11-.24-.15,0-.33.06-.54.18-1.68.96-3.75,3.3-5.73,6.36-.96,1.44-.57,3.6-1.08,4.23-.27.36-.63.48-.99.48-.84,0-1.53-.51-1.53-1.44,0-.27.03-.66.09-1.02.27-1.53.51-3.33.51-5.1,0-1.56-.18-3.12-.66-4.44-.03-.09-.06-.21-.06-.33,0-.6.69-1.05,1.38-1.05,1.59,0,1.68,2.01,1.68,3.42,0,.99.03,1.53.03,2.19,1.02-1.29,3.63-4.29,5.22-5.19.57-.33,1.2-.54,1.92-.54.93,0,2.1.27,2.1,1.47,0,.57-.6,1.02-1.23,1.02Z"/>
      <path class="cls-13" d="M1377.46,175.99c-.39.15-.75.21-1.08.21-3.75,0-3.84-8.37-3.84-11.16v-.36c0-.93.54-1.35,1.11-1.35.69,0,1.44.57,1.44,1.53,0,.36-.03.81-.03,1.29,0,2.91.3,7.38,1.26,7.38.09,0,.21-.06.36-.21,1.23-1.29,1.5-6.81,1.53-7.53.03-1.02.6-1.47,1.2-1.47.72,0,1.5.63,1.5,1.59,0,1.26-1.5,9.36-3.45,10.08Z"/>
      <path class="cls-13" d="M1399.48,175.36c-.27.09-.63.3-1.17.48-.81.3-1.65.42-2.49.42-3.87,0-7.89-2.67-10.56-4.89-.12.87-.21,1.83-.21,2.79,0,.66.03,1.32.18,1.95.09.42.21.84.21,1.23,0,.66-.36,1.17-1.53,1.17-.9,0-1.23-1.92-1.23-4.56,0-6.12,1.86-16.32,3.03-16.8.21-.09.42-.12.6-.12.81,0,1.38.72,1.38,1.5,0,.15,0,.3-.36,1.17-.75,1.8-1.26,4.77-1.56,6.78,2.04-.63,9.03-2.73,10.44-2.73.57,0,1.05.24,1.05.96,0,.42-.21.84-.57,1.08-.36.24-2.94.72-3.42.84-1.74.42-4.17,1.11-7.2,2.34.84.81,2.91,2.58,6.39,4.17,1.47.66,2.67.87,3.57.87,1.68,0,2.43-.75,2.49-.84.27-.45.66-.63,1.05-.63.69,0,1.41.6,1.41,1.29,0,.54-.39,1.11-1.5,1.53Z"/>
      <path class="cls-13" d="M1293.82,209.95c0,.69.06,1.08.06,1.47-.03.63-.39.99-1.14.99-1.2,0-1.44-.93-1.44-1.86s.21-2.34.21-4.38c0-1.65-.15-3.27-.63-3.54-.12-.06-.24-.09-.39-.09-1.53,0-4.59,3.33-5.34,4.95-.6,1.32-.69,2.67-.69,3.39,0,.6.03.72.03.84,0,1.29-.78,1.89-1.53,1.89-.66,0-1.32-.51-1.32-1.41,0-.27.03-.57.18-.9.27-.63.27-.6.3-1.38.15-3.48.21-6.78.57-10.26.27-2.4.33-4.23.45-5.43.15-1.53.63-2.19,1.26-2.19,1.05.06,1.38.66,1.38,1.5,0,.9-.45,2.91-.6,4.65-.18,2.04-.39,4.08-.51,6.15,1.35-1.53,4.08-4.29,6.3-4.29,2.82,0,2.94,5.46,2.94,7.47,0,.84-.09,1.68-.09,2.43Z"/>
      <path class="cls-13" d="M1308.73,207.91c-.42.24-.93.72-1.32,1.02-1.71,1.29-4.77,3.51-7.26,3.51-2.7,0-4.8-3.12-4.8-5.79,0-3.99,4.47-6.9,8.4-6.9,1.08,0,2.19.21,3,.69.18.12.3.21.3.33,0,.9-1.83,3.3-4.26,4.32-2.55,1.08-3.78.99-4.92,1.17v.39c0,1.44,1.02,3.48,2.67,3.48,2.01,0,6.12-3.3,6.48-3.72.3-.54.69-1.23,1.32-1.23s1.26.63,1.26,1.29c0,.57-.42,1.14-.87,1.44ZM1303.6,202.03s0-.06-.12-.06c-.36,0-1.26.06-2.49.63-1.17.51-2.13,1.47-2.13,1.47,0,0,1.8-.3,2.73-.72,1.05-.48,1.68-.99,1.95-1.23.03-.03.06-.06.06-.09Z"/>
      <path class="cls-13" d="M1315.54,193.48c-.6,5.19-1.56,10.62-1.56,15.9,0,.78.06,1.89.06,2.52,0,1.02-.42,2.22-1.26,2.22-.3,0-.6-.12-.99-.42-.21-.18-.3-1.02-.3-2.25,0-4.02.96-12.18,1.08-13.71.15-1.86.24-3.42.33-4.56.12-1.32.27-2.1.45-2.28.21-.21.57-.45.99-.45.87,0,1.29.75,1.29,1.68,0,.33-.03.78-.09,1.35Z"/>
      <path class="cls-13" d="M1322.38,193.48c-.6,5.19-1.56,10.62-1.56,15.9,0,.78.06,1.89.06,2.52,0,1.02-.42,2.22-1.26,2.22-.3,0-.6-.12-.99-.42-.21-.18-.3-1.02-.3-2.25,0-4.02.96-12.18,1.08-13.71.15-1.86.24-3.42.33-4.56.12-1.32.27-2.1.45-2.28.21-.21.57-.45.99-.45.87,0,1.29.75,1.29,1.68,0,.33-.03.78-.09,1.35Z"/>
      <path class="cls-13" d="M1336.54,207.91c-.42.24-.93.72-1.32,1.02-1.71,1.29-4.77,3.51-7.26,3.51-2.7,0-4.8-3.12-4.8-5.79,0-3.99,4.47-6.9,8.4-6.9,1.08,0,2.19.21,3,.69.18.12.3.21.3.33,0,.9-1.83,3.3-4.26,4.32-2.55,1.08-3.78.99-4.92,1.17v.39c0,1.44,1.02,3.48,2.67,3.48,2.01,0,6.12-3.3,6.48-3.72.3-.54.69-1.23,1.32-1.23s1.26.63,1.26,1.29c0,.57-.42,1.14-.87,1.44ZM1331.41,202.03s0-.06-.12-.06c-.36,0-1.26.06-2.49.63-1.17.51-2.13,1.47-2.13,1.47,0,0,1.8-.3,2.73-.72,1.05-.48,1.68-.99,1.95-1.23.03-.03.06-.06.06-.09Z"/>
      <path class="cls-13" d="M1349.44,201.82c-.42,0-.72-.24-1.11-.24-.15,0-.33.06-.54.18-1.68.96-3.75,3.3-5.73,6.36-.96,1.44-.57,3.6-1.08,4.23-.27.36-.63.48-.99.48-.84,0-1.53-.51-1.53-1.44,0-.27.03-.66.09-1.02.27-1.53.51-3.33.51-5.1,0-1.56-.18-3.12-.66-4.44-.03-.09-.06-.21-.06-.33,0-.6.69-1.05,1.38-1.05,1.59,0,1.68,2.01,1.68,3.42,0,.99.03,1.53.03,2.19,1.02-1.29,3.63-4.29,5.22-5.19.57-.33,1.2-.54,1.92-.54.93,0,2.1.27,2.1,1.47,0,.57-.6,1.02-1.23,1.02Z"/>
      <path class="cls-13" d="M1377.76,211.75c-.42,0-.81-.15-1.05-.6-.24-.42-.3-1.26-.3-2.31,0-1.68.18-3.81.18-5.37,0-1.02-.09-2.19-.45-2.19-.75,0-4.11,9.27-4.38,10.2-.3,1.17-.69,1.62-1.17,1.62-1.47,0-1.47-1.8-1.5-2.43-.03-1.62-.03-6.99-.3-8.34-.03-.18-.09-.27-.21-.3-.27,0-.63,1.02-1.23,2.34-.69,1.53-1.86,4.65-1.86,6.75,0,.3.06.57.06.96,0,.69-.78.96-1.41.96-1.14,0-1.32-.54-1.32-1.68,0-1.89.51-5.28.51-7.47,0-.54-.09-1.08-.09-1.71,0-.81.39-1.44,1.26-1.44.69,0,1.38.51,1.47,1.23.72-1.29,2.04-3.3,2.82-3.3.69,0,1.47.69,1.77,1.23.3.51.54,2.28.72,5.73,1.2-2.4,3.45-6.93,5.19-6.93.96,0,2.01,1.35,2.19,2.01.21.78.27,2.94.27,4.89,0,1.2-.06,2.43-.06,3.69,0,.42.27.87.27,1.35,0,.78-.69,1.11-1.38,1.11Z"/>
      <path class="cls-13" d="M1394.08,207.91c-.42.24-.93.72-1.32,1.02-1.71,1.29-4.77,3.51-7.26,3.51-2.7,0-4.8-3.12-4.8-5.79,0-3.99,4.47-6.9,8.4-6.9,1.08,0,2.19.21,3,.69.18.12.3.21.3.33,0,.9-1.83,3.3-4.26,4.32-2.55,1.08-3.78.99-4.92,1.17v.39c0,1.44,1.02,3.48,2.67,3.48,2.01,0,6.12-3.3,6.48-3.72.3-.54.69-1.23,1.32-1.23s1.26.63,1.26,1.29c0,.57-.42,1.14-.87,1.44ZM1388.95,202.03s0-.06-.12-.06c-.36,0-1.26.06-2.49.63-1.17.51-2.13,1.47-2.13,1.47,0,0,1.8-.3,2.73-.72,1.05-.48,1.68-.99,1.95-1.23.03-.03.06-.06.06-.09Z"/>
      <path class="cls-13" d="M1406.98,201.82c-.42,0-.72-.24-1.11-.24-.15,0-.33.06-.54.18-1.68.96-3.75,3.3-5.73,6.36-.96,1.44-.57,3.6-1.08,4.23-.27.36-.63.48-.99.48-.84,0-1.53-.51-1.53-1.44,0-.27.03-.66.09-1.02.27-1.53.51-3.33.51-5.1,0-1.56-.18-3.12-.66-4.44-.03-.09-.06-.21-.06-.33,0-.6.69-1.05,1.38-1.05,1.59,0,1.68,2.01,1.68,3.42,0,.99.03,1.53.03,2.19,1.02-1.29,3.63-4.29,5.22-5.19.57-.33,1.2-.54,1.92-.54.93,0,2.1.27,2.1,1.47,0,.57-.6,1.02-1.23,1.02Z"/>
      <path class="cls-13" d="M1311.2,244.75c0,.81.36,1.38.36,1.98,0,.78-.63,1.44-1.29,1.44-1.32,0-1.32-1.89-1.32-2.91,0-1.62.27-3.51.27-5.94v-.63c0-.63.03-1.44.24-2.07-.51,0-.93-.09-1.17-.09-1.65,0-3,.33-4.11.57-.24,1.68-.66,5.7-.66,8.28,0,.78.03,1.44.12,1.86.06.21.09.39.09.57,0,.78-.51,1.14-1.08,1.14-.78,0-1.71-.66-1.71-2.04,0-1.29,0-3.09.33-6.03.18-1.68.3-2.37.39-3.24-1.53.39-1.77.72-3.06,1.56-.18.12-.39.24-.63.24-.66,0-1.44-.6-1.44-1.32,0-.39.18-.75.54-1.02.9-.69,3.9-1.71,4.98-1.98.12-.69.66-4.17.66-5.43,0-.3-.03-.69-.03-1.08,0-.78.15-1.53,1.11-1.53,1.05,0,1.35,1.23,1.35,2.7,0,1.83-.48,4.08-.6,4.89,1.11-.18,2.04-.27,3.03-.27.39,0,.81,0,1.26.06,1.05.12,1.65.66,1.68,1.17.72.03,1.35.75,1.35,1.59s-.66,6.03-.66,7.53ZM1311.71,228.61c-.36.99-.75,1.26-.84,2.37-.03.63-.6,1.05-1.11,1.05-.63,0-.93-.6-.93-1.23,0-.99.6-2.34.87-3.06.33-.81.81-1.11,1.2-1.11.57,0,1.02.54,1.02,1.05,0,.3-.09.57-.21.93Z"/>
      <path class="cls-13" d="M1328.51,229.87c-.18.48-1.08,7.8-1.32,12.06.93.27,1.29.72,1.29,1.17,0,.66-.72,1.35-1.77,1.71,0,1.44-.15,3.12-.93,3.12-.96,0-1.47-.78-1.62-1.71-1.26.78-4.41,2.52-6.87,2.52-2.13,0-3.33-1.53-3.33-3.54,0-3.75,4.68-7.86,7.41-7.86,1.44,0,2.73.93,3.6,2.28.33-2.7.96-8.67.96-9.69,0-.39-.15-.78-.15-1.26,0-.99.48-1.38,1.05-1.38.81,0,1.8.81,1.8,1.89,0,.24-.03.45-.12.69ZM1321.31,239.65c-2.16,0-4.89,3.72-4.89,5.67,0,.66.39,1.17,1.14,1.17,1.83,0,5.22-2.34,6.18-2.91-.18-1.14-.72-3.93-2.43-3.93Z"/>
      <path class="cls-13" d="M1347.05,247.99c-.39.15-.75.21-1.08.21-3.75,0-3.84-8.37-3.84-11.16v-.36c0-.93.54-1.35,1.11-1.35.69,0,1.44.57,1.44,1.53,0,.36-.03.81-.03,1.29,0,2.91.3,7.38,1.26,7.38.09,0,.21-.06.36-.21,1.23-1.29,1.5-6.81,1.53-7.53.03-1.02.6-1.47,1.2-1.47.72,0,1.5.63,1.5,1.59,0,1.26-1.5,9.36-3.45,10.08Z"/>
      <path class="cls-13" d="M1363.88,236.62c-.39,0-.81-.09-1.05-.09-1.65,0-3,.33-4.11.57-.24,1.68-.66,5.7-.66,8.28,0,.78.03,1.44.12,1.86.06.21.09.39.09.57,0,.78-.51,1.14-1.08,1.14-.78,0-1.71-.66-1.71-2.04,0-1.29,0-3.09.33-6.03.18-1.68.3-2.37.39-3.24-1.53.39-1.77.72-3.06,1.56-.18.12-.39.24-.63.24-.66,0-1.44-.6-1.44-1.32,0-.39.18-.75.54-1.02.9-.69,3.9-1.71,4.98-1.98.12-.69.66-4.17.66-5.43,0-.3-.03-.69-.03-1.08,0-.78.15-1.53,1.11-1.53,1.05,0,1.35,1.23,1.35,2.7,0,1.83-.48,4.08-.6,4.89,1.11-.18,2.04-.27,3.03-.27.39,0,.81,0,1.26.06,1.08.12,1.68.66,1.68,1.2,0,.51-.42.96-1.17.96Z"/>
      <path class="cls-13" d="M1375.49,243.91c-.42.24-.93.72-1.32,1.02-1.71,1.29-4.77,3.51-7.26,3.51-2.7,0-4.8-3.12-4.8-5.79,0-3.99,4.47-6.9,8.4-6.9,1.08,0,2.19.21,3,.69.18.12.3.21.3.33,0,.9-1.83,3.3-4.26,4.32-2.55,1.08-3.78.99-4.92,1.17v.39c0,1.44,1.02,3.48,2.67,3.48,2.01,0,6.12-3.3,6.48-3.72.3-.54.69-1.23,1.32-1.23s1.26.63,1.26,1.29c0,.57-.42,1.14-.87,1.44ZM1370.36,238.03s0-.06-.12-.06c-.36,0-1.26.06-2.49.63-1.17.51-2.13,1.47-2.13,1.47,0,0,1.8-.3,2.73-.72,1.05-.48,1.68-.99,1.95-1.23.03-.03.06-.06.06-.09Z"/>
      <path class="cls-13" d="M1378.25,249.37c-1.02,0-1.53-.78-1.53-1.68,0-1.11.99-1.74,1.68-1.74.99,0,1.47.93,1.47,1.71,0,.96-.42,1.71-1.62,1.71Z"/>
      <path class="cls-13" d="M1317.02,264.1c-3.84,4.56-6.36,9.93-6.36,15.96,0,4.89,1.68,7.74,2.73,7.74h.24c1.41,0,2.01.78,2.01,1.56s-.6,1.59-1.53,1.59c-1.02,0-1.86-.6-2.7-1.44-2.43-2.46-3.12-5.88-3.12-9.51,0-9.51,6.78-18.54,8.07-18.54.6,0,1.29.57,1.29,1.32,0,.36-.18.81-.63,1.32Z"/>
      <path class="cls-13" d="M1323.9,265.48c-.6,5.19-1.56,10.62-1.56,15.9,0,.78.06,1.89.06,2.52,0,1.02-.42,2.22-1.26,2.22-.3,0-.6-.12-.99-.42-.21-.18-.3-1.02-.3-2.25,0-4.02.96-12.18,1.08-13.71.15-1.86.24-3.42.33-4.56.12-1.32.27-2.1.45-2.28.21-.21.57-.45.99-.45.87,0,1.29.75,1.29,1.68,0,.33-.03.78-.09,1.35Z"/>
      <path class="cls-13" d="M1338.05,279.91c-.42.24-.93.72-1.32,1.02-1.71,1.29-4.77,3.51-7.26,3.51-2.7,0-4.8-3.12-4.8-5.79,0-3.99,4.47-6.9,8.4-6.9,1.08,0,2.19.21,3,.69.18.12.3.21.3.33,0,.9-1.83,3.3-4.26,4.32-2.55,1.08-3.78.99-4.92,1.17v.39c0,1.44,1.02,3.48,2.67,3.48,2.01,0,6.12-3.3,6.48-3.72.3-.54.69-1.23,1.32-1.23s1.26.63,1.26,1.29c0,.57-.42,1.14-.87,1.44ZM1332.92,274.03s0-.06-.12-.06c-.36,0-1.26.06-2.49.63-1.17.51-2.13,1.47-2.13,1.47,0,0,1.8-.3,2.73-.72,1.05-.48,1.68-.99,1.95-1.23.03-.03.06-.06.06-.09Z"/>
      <path class="cls-13" d="M1343.21,286.75c-.81,0-1.44-.48-1.44-1.14,0-.24.09-.48.27-.72.36-.54,4.2-1.71,4.17-2.4-.42-.84-6.75-1.2-6.75-5.46,0-3.15,2.97-5.73,5.34-7.59.42-.36.96-.48,1.47-.48,1.2,0,2.49.72,2.49,1.53,0,.51-.33.96-1.08.96-.48,0-.66-.09-1.05-.24-.9.03-1.8,1.14-3.09,2.34-1.29,1.2-1.68,2.64-1.68,3.42,0,2.97,7.02,2.1,7.02,5.67,0,1.53-4.5,4.11-5.67,4.11Z"/>
      <path class="cls-13" d="M1374.95,279.91c-.42.24-.93.72-1.32,1.02-1.71,1.29-4.77,3.51-7.26,3.51-2.7,0-4.8-3.12-4.8-5.79,0-3.99,4.47-6.9,8.4-6.9,1.08,0,2.19.21,3,.69.18.12.3.21.3.33,0,.9-1.83,3.3-4.26,4.32-2.55,1.08-3.78.99-4.92,1.17v.39c0,1.44,1.02,3.48,2.67,3.48,2.01,0,6.12-3.3,6.48-3.72.3-.54.69-1.23,1.32-1.23s1.26.63,1.26,1.29c0,.57-.42,1.14-.87,1.44ZM1369.82,274.03s0-.06-.12-.06c-.36,0-1.26.06-2.49.63-1.17.51-2.13,1.47-2.13,1.47,0,0,1.8-.3,2.73-.72,1.05-.48,1.68-.99,1.95-1.23.03-.03.06-.06.06-.09Z"/>
      <path class="cls-13" d="M1385.27,285.79c-.84,0-1.77-.72-1.77-1.68,0-.18.03-.36.09-.54,0-1.26-.27-2.7-.3-4.59,0-.96.03-1.95.03-2.88s-.03-1.71-.12-1.71c-2.19,2.79-3.72,9.9-4.47,10.2-.39.18-.69.24-.93.24-.93,0-1.11-.87-1.11-1.8,0-.27,0-.84.03-1.08.36-3.57.15-6.33.6-9.57.12-.78.54-1.02,1.02-1.02.51,0,1.08.3,1.35.6.15.18.21.48.21.87,0,.93-.3,2.31-.3,3.54,1.17-1.98,2.85-5.16,4.2-5.16,1.59,0,2.04,3.12,2.04,7.68,0,3.18,0,4.02.06,4.23.24.45.54,1.02.54,1.56,0,.69-.51,1.11-1.17,1.11Z"/>
      <path class="cls-13" d="M1312.36,319.03c-.39.36-1.2.99-1.56,1.47-.27.39-.63.54-.96.54-.63,0-1.2-.51-1.23-1.29-.33-.06-.75-.24-.96-.63-.03-.09-.06-.84-.06-1.92,0-1.8.09-4.59.36-6.69-.3-.3-.42-.6-.42-.9,0-.51.36-1.02.87-1.32.18-.75.87-3.63.87-5.76,0-.39-.24-.81-.24-1.38,0-.75.45-1.17.96-1.17.78,0,1.74.87,1.74,2.73,0,1.74-.57,3.42-.9,5.13,1.41.03,5.16.42,6.42,3.3.12.27.15.54.15.84,0,2.4-3.45,5.64-5.04,7.05ZM1310.95,310.24h-.54c-.36,1.65-.51,3.3-.51,4.98,0,.96.06,1.92.15,2.88,1.41-1.11,4.86-4.08,4.86-5.91,0-1.56-2.73-1.95-3.96-1.95Z"/>
      <path class="cls-13" d="M1321.57,320.41c-2.25,0-3.51-2.64-3.51-4.77,0-.78.15-1.68.51-2.49,1.62-3.63,3.33-5.19,5.1-5.31h.15c2.64,0,4.38,2.67,4.38,5.37,0,4.26-3.96,7.2-6.63,7.2ZM1324.42,310.33c-1.86,0-3.96,3.57-3.96,5.28,0,.75.36,2.43,1.5,2.43,1.05,0,2.67-1.29,3.18-2.31.48-.93.78-1.86.78-2.76,0-.84-.36-2.64-1.5-2.64Z"/>
      <path class="cls-13" d="M1346.77,319.36c-.27.09-.63.3-1.17.48-.81.3-1.65.42-2.49.42-3.87,0-7.89-2.67-10.56-4.89-.12.87-.21,1.83-.21,2.79,0,.66.03,1.32.18,1.95.09.42.21.84.21,1.23,0,.66-.36,1.17-1.53,1.17-.9,0-1.23-1.92-1.23-4.56,0-6.12,1.86-16.32,3.03-16.8.21-.09.42-.12.6-.12.81,0,1.38.72,1.38,1.5,0,.15,0,.3-.36,1.17-.75,1.8-1.26,4.77-1.56,6.78,2.04-.63,9.03-2.73,10.44-2.73.57,0,1.05.24,1.05.96,0,.42-.21.84-.57,1.08-.36.24-2.94.72-3.42.84-1.74.42-4.17,1.11-7.2,2.34.84.81,2.91,2.58,6.39,4.17,1.47.66,2.67.87,3.57.87,1.68,0,2.43-.75,2.49-.84.27-.45.66-.63,1.05-.63.69,0,1.41.6,1.41,1.29,0,.54-.39,1.11-1.5,1.53Z"/>
      <path class="cls-13" d="M1348.78,324.94c.36,0,.54.24.54.57,0,.81-.99,2.16-2.49,2.16-.54,0-.87-.54-.87-1.26,0-.27.03-.57.15-.87.45-1.38,2.49-6.75,3.63-7.02.12-.03.15-.03.24-.03.54,0,1.14.42,1.23,1.08,0,.72-1.98,4.35-2.43,5.37Z"/>
      <path class="cls-13" d="M1384.45,323.23c-.63,0-1.26-.24-1.53-.84-2.22,0-3.66.12-5.13.3.21.69.33,1.47.33,2.25,0,5.31-4.32,12.12-9.51,12.12-2.88,0-6.09-2.22-6.09-5.61,0-1.53.63-3.18,2.04-4.77,3.33-3.69,6-4.68,9.84-5.61-.96-1.11-2.28-1.53-3.66-1.53-.93,0-1.86.18-2.7.51-.51.18-1.02.48-1.56.48-.57,0-1.35-.48-1.35-1.14,0-.57.54-1.11,1.2-1.35-.15-.45-.21-.84-.21-1.23,0-2.1,1.71-3.63,3.03-5.25-.45-.39-.63-.81-.63-1.14,0-.57.51-.96,1.08-.96.45,0,.75.39,1.26.39.66,0,1.95-.21,3.3-.39.69-.09,2.73-.39,3.93-.39.63,0,1.74.27,1.74,1.11,0,.48-.51.96-1.53.96-.15,0-.3-.03-.51-.03-1.05,0-2.04.27-3.09.42.78.78,1.11,1.59,1.11,2.37,0,1.32-.99,2.64-2.37,3.81,1.53.63,2.46,1.53,3.36,2.88.81-.09,2.58-.27,4.35-.27,1.02,0,5.19.06,5.19,1.74,0,.66-.96,1.17-1.89,1.17ZM1375.39,323.14c-1.29.24-6,1.38-8.94,4.98-1.02,1.29-1.53,2.37-1.53,3.3,0,1.77,1.95,3.27,3.69,3.27,3.51,0,7.08-5.28,7.08-9.63,0-.66-.09-1.32-.3-1.92ZM1371.82,312.13c-.93.84-1.65,1.62-2.16,2.28-.51.72-1.02,1.5-1.02,2.37,0,.18.03.39.06.6,1.47-.36,4.68-1.74,4.68-3.42-.06-1.23-1.17-1.71-1.56-1.83Z"/>
      <path class="cls-13" d="M1387.75,320.08c-.15.18-.36.27-.6.27-.45,0-.93-.3-1.11-.72-.72.42-2.16,1.14-3.48,1.14-1.47,0-2.55-1.11-2.55-2.64,0-2.25,2.16-4.89,4.2-4.89.87,0,1.74.51,2.4,1.77.06-.39.12-.84.12-1.35,0-1.2-.51-4.08-2.31-4.08-.81,0-1.62.51-1.65.69-.03.33-.33.51-.69.51-.6,0-1.23-.45-1.23-1.11,0-1.35,2.04-2.31,3.81-2.31,3.12,0,4.44,3.42,4.44,6.24,0,3-1.08,5.97-1.35,6.48ZM1384.18,315.58c-.99.06-2.01,1.5-2.01,2.49,0,.42.21.57.54.57.78,0,2.16-.9,2.67-1.29-.21-.57-.75-1.77-1.2-1.77ZM1388.44,303.85c-1.11,1.2-2.07,1.89-3.21,1.89-1.26,0-2.04-.75-2.04-2.1,0-1.95,1.26-4.2,3.54-4.2,1.2,0,2.79.6,2.79,2.04,0,.66-.27,1.5-1.08,2.37ZM1386.97,301.72c-.42,0-.87.12-1.2.42s-.57.81-.57,1.17c0,.06.03.18.15.18.48,0,2.1-1.2,2.1-1.5,0-.21-.27-.27-.48-.27Z"/>
      <path class="cls-13" d="M1309.66,355.99c-.39.15-.75.21-1.08.21-3.75,0-3.84-8.37-3.84-11.16v-.36c0-.93.54-1.35,1.11-1.35.69,0,1.44.57,1.44,1.53,0,.36-.03.81-.03,1.29,0,2.91.3,7.38,1.26,7.38.09,0,.21-.06.36-.21,1.23-1.29,1.5-6.81,1.53-7.53.03-1.02.6-1.47,1.2-1.47.72,0,1.5.63,1.5,1.59,0,1.26-1.5,9.36-3.45,10.08Z"/>
      <path class="cls-13" d="M1326.49,344.62c-.39,0-.81-.09-1.05-.09-1.65,0-3,.33-4.11.57-.24,1.68-.66,5.7-.66,8.28,0,.78.03,1.44.12,1.86.06.21.09.39.09.57,0,.78-.51,1.14-1.08,1.14-.78,0-1.71-.66-1.71-2.04,0-1.29,0-3.09.33-6.03.18-1.68.3-2.37.39-3.24-1.53.39-1.77.72-3.06,1.56-.18.12-.39.24-.63.24-.66,0-1.44-.6-1.44-1.32,0-.39.18-.75.54-1.02.9-.69,3.9-1.71,4.98-1.98.12-.69.66-4.17.66-5.43,0-.3-.03-.69-.03-1.08,0-.78.15-1.53,1.11-1.53,1.05,0,1.35,1.23,1.35,2.7,0,1.83-.48,4.08-.6,4.89,1.11-.18,2.04-.27,3.03-.27.39,0,.81,0,1.26.06,1.08.12,1.68.66,1.68,1.2s-.42.96-1.17.96Z"/>
      <path class="cls-13" d="M1341.67,356.41c-2.25,0-3.51-2.64-3.51-4.77,0-.78.15-1.68.51-2.49,1.62-3.63,3.33-5.19,5.1-5.31h.15c2.64,0,4.38,2.67,4.38,5.37,0,4.26-3.96,7.2-6.63,7.2ZM1344.52,346.33c-1.86,0-3.96,3.57-3.96,5.28,0,.75.36,2.43,1.5,2.43,1.05,0,2.67-1.29,3.18-2.31.48-.93.78-1.86.78-2.76,0-.84-.36-2.64-1.5-2.64Z"/>
      <path class="cls-13" d="M1368.1,359.23c-.63,0-1.26-.24-1.53-.84-2.22,0-3.66.12-5.13.3.21.69.33,1.47.33,2.25,0,5.31-4.32,12.12-9.51,12.12-2.88,0-6.09-2.22-6.09-5.61,0-1.53.63-3.18,2.04-4.77,3.33-3.69,6-4.68,9.84-5.61-.96-1.11-2.28-1.53-3.66-1.53-.93,0-1.86.18-2.7.51-.51.18-1.02.48-1.56.48-.57,0-1.35-.48-1.35-1.14,0-.57.54-1.11,1.2-1.35-.15-.45-.21-.84-.21-1.23,0-2.1,1.71-3.63,3.03-5.25-.45-.39-.63-.81-.63-1.14,0-.57.51-.96,1.08-.96.45,0,.75.39,1.26.39.66,0,1.95-.21,3.3-.39.69-.09,2.73-.39,3.93-.39.63,0,1.74.27,1.74,1.11,0,.48-.51.96-1.53.96-.15,0-.3-.03-.51-.03-1.05,0-2.04.27-3.09.42.78.78,1.11,1.59,1.11,2.37,0,1.32-.99,2.64-2.37,3.81,1.53.63,2.46,1.53,3.36,2.88.81-.09,2.58-.27,4.35-.27,1.02,0,5.19.06,5.19,1.74,0,.66-.96,1.17-1.89,1.17ZM1359.04,359.14c-1.29.24-6,1.38-8.94,4.98-1.02,1.29-1.53,2.37-1.53,3.3,0,1.77,1.95,3.27,3.69,3.27,3.51,0,7.08-5.28,7.08-9.63,0-.66-.09-1.32-.3-1.92ZM1355.47,348.13c-.93.84-1.65,1.62-2.16,2.28-.51.72-1.02,1.5-1.02,2.37,0,.18.03.39.06.6,1.47-.36,4.68-1.74,4.68-3.42-.06-1.23-1.17-1.71-1.56-1.83Z"/>
      <path class="cls-13" d="M1307.95,373.48c-.6,5.19-1.56,10.62-1.56,15.9,0,.78.06,1.89.06,2.52,0,1.02-.42,2.22-1.26,2.22-.3,0-.6-.12-.99-.42-.21-.18-.3-1.02-.3-2.25,0-4.02.96-12.18,1.08-13.71.15-1.86.24-3.42.33-4.56.12-1.32.27-2.1.45-2.28.21-.21.57-.45.99-.45.87,0,1.29.75,1.29,1.68,0,.33-.03.78-.09,1.35Z"/>
      <path class="cls-13" d="M1322.11,387.91c-.42.24-.93.72-1.32,1.02-1.71,1.29-4.77,3.51-7.26,3.51-2.7,0-4.8-3.12-4.8-5.79,0-3.99,4.47-6.9,8.4-6.9,1.08,0,2.19.21,3,.69.18.12.3.21.3.33,0,.9-1.83,3.3-4.26,4.32-2.55,1.08-3.78.99-4.92,1.17v.39c0,1.44,1.02,3.48,2.67,3.48,2.01,0,6.12-3.3,6.48-3.72.3-.54.69-1.23,1.32-1.23s1.26.63,1.26,1.29c0,.57-.42,1.14-.87,1.44ZM1316.98,382.03s0-.06-.12-.06c-.36,0-1.26.06-2.49.63-1.17.51-2.13,1.47-2.13,1.47,0,0,1.8-.3,2.73-.72,1.05-.48,1.68-.99,1.95-1.23.03-.03.06-.06.06-.09Z"/>
      <path class="cls-13" d="M1340.17,391.36c-.27.09-.63.3-1.17.48-.81.3-1.65.42-2.49.42-3.87,0-7.89-2.67-10.56-4.89-.12.87-.21,1.83-.21,2.79,0,.66.03,1.32.18,1.95.09.42.21.84.21,1.23,0,.66-.36,1.17-1.53,1.17-.9,0-1.23-1.92-1.23-4.56,0-6.12,1.86-16.32,3.03-16.8.21-.09.42-.12.6-.12.81,0,1.38.72,1.38,1.5,0,.15,0,.3-.36,1.17-.75,1.8-1.26,4.77-1.56,6.78,2.04-.63,9.03-2.73,10.44-2.73.57,0,1.05.24,1.05.96,0,.42-.21.84-.57,1.08-.36.24-2.94.72-3.42.84-1.74.42-4.17,1.11-7.2,2.34.84.81,2.91,2.58,6.39,4.17,1.47.66,2.67.87,3.57.87,1.68,0,2.43-.75,2.49-.84.27-.45.66-.63,1.05-.63.69,0,1.41.6,1.41,1.29,0,.54-.39,1.11-1.5,1.53Z"/>
      <path class="cls-13" d="M1342.18,396.94c.36,0,.54.24.54.57,0,.81-.99,2.16-2.49,2.16-.54,0-.87-.54-.87-1.26,0-.27.03-.57.15-.87.45-1.38,2.49-6.75,3.63-7.02.12-.03.15-.03.24-.03.54,0,1.14.42,1.23,1.08,0,.72-1.98,4.35-2.43,5.37Z"/>
      <path class="cls-13" d="M1320.22,431.23c-.63,0-1.26-.24-1.53-.84-2.22,0-3.66.12-5.13.3.21.69.33,1.47.33,2.25,0,5.31-4.32,12.12-9.51,12.12-2.88,0-6.09-2.22-6.09-5.61,0-1.53.63-3.18,2.04-4.77,3.33-3.69,6-4.68,9.84-5.61-.96-1.11-2.28-1.53-3.66-1.53-.93,0-1.86.18-2.7.51-.51.18-1.02.48-1.56.48-.57,0-1.35-.48-1.35-1.14,0-.57.54-1.11,1.2-1.35-.15-.45-.21-.84-.21-1.23,0-2.1,1.71-3.63,3.03-5.25-.45-.39-.63-.81-.63-1.14,0-.57.51-.96,1.08-.96.45,0,.75.39,1.26.39.66,0,1.95-.21,3.3-.39.69-.09,2.73-.39,3.93-.39.63,0,1.74.27,1.74,1.11,0,.48-.51.96-1.53.96-.15,0-.3-.03-.51-.03-1.05,0-2.04.27-3.09.42.78.78,1.11,1.59,1.11,2.37,0,1.32-.99,2.64-2.37,3.81,1.53.63,2.46,1.53,3.36,2.88.81-.09,2.58-.27,4.35-.27,1.02,0,5.19.06,5.19,1.74,0,.66-.96,1.17-1.89,1.17ZM1311.16,431.14c-1.29.24-6,1.38-8.94,4.98-1.02,1.29-1.53,2.37-1.53,3.3,0,1.77,1.95,3.27,3.69,3.27,3.51,0,7.08-5.28,7.08-9.63,0-.66-.09-1.32-.3-1.92ZM1307.59,420.13c-.93.84-1.65,1.62-2.16,2.28-.51.72-1.02,1.5-1.02,2.37,0,.18.03.39.06.6,1.47-.36,4.68-1.74,4.68-3.42-.06-1.23-1.17-1.71-1.56-1.83Z"/>
      <path class="cls-13" d="M1323.52,428.08c-.15.18-.36.27-.6.27-.45,0-.93-.3-1.11-.72-.72.42-2.16,1.14-3.48,1.14-1.47,0-2.55-1.11-2.55-2.64,0-2.25,2.16-4.89,4.2-4.89.87,0,1.74.51,2.4,1.77.06-.39.12-.84.12-1.35,0-1.2-.51-4.08-2.31-4.08-.81,0-1.62.51-1.65.69-.03.33-.33.51-.69.51-.6,0-1.23-.45-1.23-1.11,0-1.35,2.04-2.31,3.81-2.31,3.12,0,4.44,3.42,4.44,6.24,0,3-1.08,5.97-1.35,6.48ZM1319.95,423.58c-.99.06-2.01,1.5-2.01,2.49,0,.42.21.57.54.57.78,0,2.16-.9,2.67-1.29-.21-.57-.75-1.77-1.2-1.77ZM1324.21,411.85c-1.11,1.2-2.07,1.89-3.21,1.89-1.26,0-2.04-.75-2.04-2.1,0-1.95,1.26-4.2,3.54-4.2,1.2,0,2.79.6,2.79,2.04,0,.66-.27,1.5-1.08,2.37ZM1322.74,409.72c-.42,0-.87.12-1.2.42-.33.3-.57.81-.57,1.17,0,.06.03.18.15.18.48,0,2.1-1.2,2.1-1.5,0-.21-.27-.27-.48-.27Z"/>
      <path class="cls-13" d="M1351.6,423.91c-.42.24-.93.72-1.32,1.02-1.71,1.29-4.77,3.51-7.26,3.51-2.7,0-4.8-3.12-4.8-5.79,0-3.99,4.47-6.9,8.4-6.9,1.08,0,2.19.21,3,.69.18.12.3.21.3.33,0,.9-1.83,3.3-4.26,4.32-2.55,1.08-3.78.99-4.92,1.17v.39c0,1.44,1.02,3.48,2.67,3.48,2.01,0,6.12-3.3,6.48-3.72.3-.54.69-1.23,1.32-1.23s1.26.63,1.26,1.29c0,.57-.42,1.14-.87,1.44ZM1346.47,418.03s0-.06-.12-.06c-.36,0-1.26.06-2.49.63-1.17.51-2.13,1.47-2.13,1.47,0,0,1.8-.3,2.73-.72,1.05-.48,1.68-.99,1.95-1.23.03-.03.06-.06.06-.09Z"/>
      <path class="cls-13" d="M1361.92,429.79c-.84,0-1.77-.72-1.77-1.68,0-.18.03-.36.09-.54,0-1.26-.27-2.7-.3-4.59,0-.96.03-1.95.03-2.88s-.03-1.71-.12-1.71c-2.19,2.79-3.72,9.9-4.47,10.2-.39.18-.69.24-.93.24-.93,0-1.11-.87-1.11-1.8,0-.27,0-.84.03-1.08.36-3.57.15-6.33.6-9.57.12-.78.54-1.02,1.02-1.02.51,0,1.08.3,1.35.6.15.18.21.48.21.87,0,.93-.3,2.31-.3,3.54,1.17-1.98,2.85-5.16,4.2-5.16,1.59,0,2.04,3.12,2.04,7.68,0,3.18,0,4.02.06,4.23.24.45.54,1.02.54,1.56,0,.69-.51,1.11-1.17,1.11Z"/>
      <path class="cls-13" d="M1387.87,416.62c-.39,0-.81-.09-1.05-.09-1.65,0-3,.33-4.11.57-.24,1.68-.66,5.7-.66,8.28,0,.78.03,1.44.12,1.86.06.21.09.39.09.57,0,.78-.51,1.14-1.08,1.14-.78,0-1.71-.66-1.71-2.04,0-1.29,0-3.09.33-6.03.18-1.68.3-2.37.39-3.24-1.53.39-1.77.72-3.06,1.56-.18.12-.39.24-.63.24-.66,0-1.44-.6-1.44-1.32,0-.39.18-.75.54-1.02.9-.69,3.9-1.71,4.98-1.98.12-.69.66-4.17.66-5.43,0-.3-.03-.69-.03-1.08,0-.78.15-1.53,1.11-1.53,1.05,0,1.35,1.23,1.35,2.7,0,1.83-.48,4.08-.6,4.89,1.11-.18,2.04-.27,3.03-.27.39,0,.81,0,1.26.06,1.08.12,1.68.66,1.68,1.2s-.42.96-1.17.96Z"/>
      <path class="cls-13" d="M1392.91,427.99c-.39.15-.75.21-1.08.21-3.75,0-3.84-8.37-3.84-11.16v-.36c0-.93.54-1.35,1.11-1.35.69,0,1.44.57,1.44,1.53,0,.36-.03.81-.03,1.29,0,2.91.3,7.38,1.26,7.38.09,0,.21-.06.36-.21,1.23-1.29,1.5-6.81,1.53-7.53.03-1.02.6-1.47,1.2-1.47.72,0,1.5.63,1.5,1.59,0,1.26-1.5,9.36-3.45,10.08Z"/>
      <path class="cls-13" d="M1409.59,417.82c-.42,0-.72-.24-1.11-.24-.15,0-.33.06-.54.18-1.68.96-3.75,3.3-5.73,6.36-.96,1.44-.57,3.6-1.08,4.23-.27.36-.63.48-.99.48-.84,0-1.53-.51-1.53-1.44,0-.27.03-.66.09-1.02.27-1.53.51-3.33.51-5.1,0-1.56-.18-3.12-.66-4.44-.03-.09-.06-.21-.06-.33,0-.6.69-1.05,1.38-1.05,1.59,0,1.68,2.01,1.68,3.42,0,.99.03,1.53.03,2.19,1.02-1.29,3.63-4.29,5.22-5.19.57-.33,1.2-.54,1.92-.54.93,0,2.1.27,2.1,1.47,0,.57-.6,1.02-1.23,1.02Z"/>
      <path class="cls-13" d="M1412.53,436.48c-.75.45-1.47.81-2.07,1.47-.36.39-.84.57-1.32.57-.78,0-1.5-.48-1.5-1.32,0-.27.03-.6.24-.9.48-.69,1.83-.57,2.16-.78.09-.03.45-.3,1.35-.9,4.17-2.73,6.63-6.78,6.63-11.76,0-.51,0-1.02-.06-1.56-1.08-10.29-4.65-13.41-5.82-13.71-1.2-.3-1.59-.57-1.59-1.23,0-.75.33-1.35,1.23-1.35.45,0,.93.12,1.29.27,1.05.42,6.39,4.41,7.47,15.57.06.6.09,1.14.09,1.71,0,5.94-3.09,10.74-8.1,13.92Z"/>
    </g>
    <text class="cls-14" transform="translate(608.43 509.41)"><tspan x="0" y="0">S</tspan><tspan class="cls-18" x="18.63" y="0">l</tspan><tspan class="cls-4" x="25.02" y="0">e</tspan><tspan class="cls-20" x="38.97" y="0">t</tspan><tspan x="49.86" y="0">t unna </tspan><tspan x="0" y="36">e-pos</tspan><tspan class="cls-7" x="62.19" y="36">t</tspan><tspan x="72.27" y="36">er du </tspan><tspan class="cls-11" x="0" y="72">i</tspan><tspan x="6.93" y="72">k</tspan><tspan class="cls-1" x="24.57" y="72">k</tspan><tspan x="41.13" y="72">e </tspan><tspan class="cls-2" x="67.41" y="72">t</tspan><tspan class="cls-1" x="80.01" y="72">r</tspan><tspan x="91.29" y="72">e</tspan><tspan class="cls-9" x="105.87" y="72">n</tspan><tspan class="cls-11" x="118.02" y="72">g</tspan><tspan x="131.88" y="72">er</tspan></text>
    <g>
      <path class="cls-13" d="M1310.89,572.65c-.6,0-1.26-.21-1.53-.54-.06-.06-.36-.15-.81-.33-4.98-1.98-9.72-4.53-13.83-8.04-.12,1.41-.33,4.23-.39,6.45,0,.6.39,1.17.39,1.8,0,1.02-.75,1.5-1.62,1.5-.45,0-.87-.15-1.17-.48-.12-.15-.15-.69-.15-1.53,0-.75.03-1.71.12-2.79.15-2.1.39-4.71.51-6.96,0,0-.33-.15-.33-.6,0-.21.36-.45.36-.45.09-.75.33-3.27.33-4.35,0-.27-.06-.54-.06-1.02,0-1.56.81-2.31,1.62-2.31.48,0,.96.27,1.29.78,1.17-.51,4.95-1.92,7.83-1.92,1.62,0,3.51.6,3.51,2.58,0,2.61-4.32,5.31-10.38,7.77,2.7,2.43,10.89,7.17,13.92,7.56.45.06,1.74.51,1.74,1.65,0,.84-.57,1.23-1.35,1.23ZM1303.3,554.17c-1.92,0-5.91.93-6.87,1.8-.18.15-.36.24-.57.24-.03,0-.06-.03-.09-.03-.15,1.32-.45,2.61-.63,3.93,1.95-.45,9.21-3.51,9.21-5.61,0-.24-.42-.33-1.05-.33Z"/>
      <path class="cls-13" d="M1322.56,568.24c-.42.24-.93.72-1.32,1.02-1.71,1.29-4.77,3.51-7.26,3.51-2.7,0-4.8-3.12-4.8-5.79,0-3.99,4.47-6.9,8.4-6.9,1.08,0,2.19.21,3,.69.18.12.3.21.3.33,0,.9-1.83,3.3-4.26,4.32-2.55,1.08-3.78.99-4.92,1.17v.39c0,1.44,1.02,3.48,2.67,3.48,2.01,0,6.12-3.3,6.48-3.72.3-.54.69-1.23,1.32-1.23s1.26.63,1.26,1.29c0,.57-.42,1.14-.87,1.44ZM1317.43,562.36s0-.06-.12-.06c-.36,0-1.26.06-2.49.63-1.17.51-2.13,1.47-2.13,1.47,0,0,1.8-.3,2.73-.72,1.05-.48,1.68-.99,1.95-1.23.03-.03.06-.06.06-.09Z"/>
      <path class="cls-13" d="M1338.13,554.2c-.18.48-1.08,7.8-1.32,12.06.93.27,1.29.72,1.29,1.17,0,.66-.72,1.35-1.77,1.71,0,1.44-.15,3.12-.93,3.12-.96,0-1.47-.78-1.62-1.71-1.26.78-4.41,2.52-6.87,2.52-2.13,0-3.33-1.53-3.33-3.54,0-3.75,4.68-7.86,7.41-7.86,1.44,0,2.73.93,3.6,2.28.33-2.7.96-8.67.96-9.69,0-.39-.15-.78-.15-1.26,0-.99.48-1.38,1.05-1.38.81,0,1.8.81,1.8,1.89,0,.24-.03.45-.12.69ZM1330.93,563.98c-2.16,0-4.89,3.72-4.89,5.67,0,.66.39,1.17,1.14,1.17,1.83,0,5.22-2.34,6.18-2.91-.18-1.14-.72-3.93-2.43-3.93Z"/>
      <path class="cls-13" d="M1344.97,572.32c-.39.15-.75.21-1.08.21-3.75,0-3.84-8.37-3.84-11.16v-.36c0-.93.54-1.35,1.11-1.35.69,0,1.44.57,1.44,1.53,0,.36-.03.81-.03,1.29,0,2.91.3,7.38,1.26,7.38.09,0,.21-.06.36-.21,1.23-1.29,1.5-6.81,1.53-7.53.03-1.02.6-1.47,1.2-1.47.72,0,1.5.63,1.5,1.59,0,1.26-1.5,9.36-3.45,10.08Z"/>
      <path class="cls-13" d="M1353.91,575.08c-.81,0-1.44-.48-1.44-1.14,0-.24.09-.48.27-.72.36-.54,4.2-1.71,4.17-2.4-.42-.84-6.75-1.2-6.75-5.46,0-3.15,2.97-5.73,5.34-7.59.42-.36.96-.48,1.47-.48,1.2,0,2.49.72,2.49,1.53,0,.51-.33.96-1.08.96-.48,0-.66-.09-1.05-.24-.9.03-1.8,1.14-3.09,2.34-1.29,1.2-1.68,2.64-1.68,3.42,0,2.97,7.02,2.1,7.02,5.67,0,1.53-4.5,4.11-5.67,4.11Z"/>
      <path class="cls-13" d="M1373.5,568.24c-.42.24-.93.72-1.32,1.02-1.71,1.29-4.77,3.51-7.26,3.51-2.7,0-4.8-3.12-4.8-5.79,0-3.99,4.47-6.9,8.4-6.9,1.08,0,2.19.21,3,.69.18.12.3.21.3.33,0,.9-1.83,3.3-4.26,4.32-2.55,1.08-3.78.99-4.92,1.17v.39c0,1.44,1.02,3.48,2.67,3.48,2.01,0,6.12-3.3,6.48-3.72.3-.54.69-1.23,1.32-1.23s1.26.63,1.26,1.29c0,.57-.42,1.14-.87,1.44ZM1368.37,562.36s0-.06-.12-.06c-.36,0-1.26.06-2.49.63-1.17.51-2.13,1.47-2.13,1.47,0,0,1.8-.3,2.73-.72,1.05-.48,1.68-.99,1.95-1.23.03-.03.06-.06.06-.09Z"/>
      <path class="cls-13" d="M1386.4,562.15c-.42,0-.72-.24-1.11-.24-.15,0-.33.06-.54.18-1.68.96-3.75,3.3-5.73,6.36-.96,1.44-.57,3.6-1.08,4.23-.27.36-.63.48-.99.48-.84,0-1.53-.51-1.53-1.44,0-.27.03-.66.09-1.02.27-1.53.51-3.33.51-5.1,0-1.56-.18-3.12-.66-4.44-.03-.09-.06-.21-.06-.33,0-.6.69-1.05,1.38-1.05,1.59,0,1.68,2.01,1.68,3.42,0,.99.03,1.53.03,2.19,1.02-1.29,3.63-4.29,5.22-5.19.57-.33,1.2-.54,1.92-.54.93,0,2.1.27,2.1,1.47,0,.57-.6,1.02-1.23,1.02Z"/>
      <path class="cls-13" d="M1284.82,589.81c-.6,5.19-1.56,10.62-1.56,15.9,0,.78.06,1.89.06,2.52,0,1.02-.42,2.22-1.26,2.22-.3,0-.6-.12-.99-.42-.21-.18-.3-1.02-.3-2.25,0-4.02.96-12.18,1.08-13.71.15-1.86.24-3.42.33-4.56.12-1.32.27-2.1.45-2.28.21-.21.57-.45.99-.45.87,0,1.29.75,1.29,1.68,0,.33-.03.78-.09,1.35Z"/>
      <path class="cls-13" d="M1294.48,619.96c.03.09.45.69.45,1.35,0,.9-.75,1.35-1.5,1.35-.81,0-1.5-.54-1.5-1.41,0-.33.24-1.14.57-1.38.12-.12.18-3.6.75-9.18.36-3.57.57-5.31.69-8.85-1.62,1.86-4.59,5.58-6.03,5.58-.99,0-1.29-.93-1.29-2.4,0-1.71.42-4.08.75-6.51.09-.72.15-3.06,1.41-3.06.63,0,1.44.6,1.5,1.32,0,1.05-1.29,5.73-1.29,6.93,0,.15,0,.24.06.27.36,0,3.36-4.02,4.62-5.43.42-.45.6-1.53,1.5-1.53,1.35,0,1.5,2.07,1.5,3.15,0,2.16-1.38,14.4-2.19,19.8Z"/>
      <path class="cls-13" d="M1302.43,611.08c-.81,0-1.44-.48-1.44-1.14,0-.24.09-.48.27-.72.36-.54,4.2-1.71,4.17-2.4-.42-.84-6.75-1.2-6.75-5.46,0-3.15,2.97-5.73,5.34-7.59.42-.36.96-.48,1.47-.48,1.2,0,2.49.72,2.49,1.53,0,.51-.33.96-1.08.96-.48,0-.66-.09-1.05-.24-.9.03-1.8,1.14-3.09,2.34-1.29,1.2-1.68,2.64-1.68,3.42,0,2.97,7.02,2.1,7.02,5.67,0,1.53-4.5,4.11-5.67,4.11Z"/>
      <path class="cls-13" d="M1313.05,611.08c-.81,0-1.44-.48-1.44-1.14,0-.24.09-.48.27-.72.36-.54,4.2-1.71,4.17-2.4-.42-.84-6.75-1.2-6.75-5.46,0-3.15,2.97-5.73,5.34-7.59.42-.36.96-.48,1.47-.48,1.2,0,2.49.72,2.49,1.53,0,.51-.33.96-1.08.96-.48,0-.66-.09-1.05-.24-.9.03-1.8,1.14-3.09,2.34-1.29,1.2-1.68,2.64-1.68,3.42,0,2.97,7.02,2.1,7.02,5.67,0,1.53-4.5,4.11-5.67,4.11Z"/>
      <path class="cls-13" d="M1330.72,596.77c-1.65,0-3.21.42-4.32.66-.24,1.68-.66,5.7-.66,8.28,0,.78.03,1.44.12,1.86.06.21.09.39.09.57,0,.78-.51,1.14-1.08,1.14-.78,0-1.71-.66-1.71-2.04,0-1.29,0-3.09.33-6.03.18-1.68.3-2.37.39-3.24-1.53.39-1.77.72-3.06,1.56-.18.12-.39.24-.63.24-.66,0-1.44-.6-1.44-1.32,0-.39.18-.75.54-1.02.9-.69,3.9-1.71,4.98-1.98.12-.69.66-4.17.66-5.43,0-.3-.03-.69-.03-1.08,0-.78.15-1.53,1.11-1.53,1.05,0,1.35,1.23,1.35,2.7,0,1.83-.48,4.08-.6,4.89,1.11-.18,2.04-.27,3.03-.27,2.49,0,4.41.42,4.41,1.8,0,1.05-1.26,5.97-1.26,7.17,0,.15,0,.24.06.27.36,0,3.36-4.02,4.62-5.43.42-.45.6-1.53,1.5-1.53,1.35,0,1.5,2.07,1.5,3.15,0,2.16-1.38,14.4-2.19,19.8.03.09.45.69.45,1.35,0,.9-.75,1.35-1.5,1.35-.81,0-1.5-.54-1.5-1.41,0-.33.24-1.14.57-1.38.12-.12.18-3.6.75-9.18.36-3.57.57-5.31.69-8.85-1.62,1.86-4.59,5.58-6.03,5.58-.99,0-1.29-.93-1.29-2.4,0-1.71.66-5.76.99-8.19,0,0-.45-.06-.84-.06Z"/>
      <path class="cls-13" d="M1353.49,598.15c-.42,0-.72-.24-1.11-.24-.15,0-.33.06-.54.18-1.68.96-3.75,3.3-5.73,6.36-.96,1.44-.57,3.6-1.08,4.23-.27.36-.63.48-.99.48-.84,0-1.53-.51-1.53-1.44,0-.27.03-.66.09-1.02.27-1.53.51-3.33.51-5.1,0-1.56-.18-3.12-.66-4.44-.03-.09-.06-.21-.06-.33,0-.6.69-1.05,1.38-1.05,1.59,0,1.68,2.01,1.68,3.42,0,.99.03,1.53.03,2.19,1.02-1.29,3.63-4.29,5.22-5.19.57-.33,1.2-.54,1.92-.54.93,0,2.1.27,2.1,1.47,0,.57-.6,1.02-1.23,1.02Z"/>
      <path class="cls-13" d="M1371.64,607.69c-.27.09-.63.3-1.17.48-.81.3-1.65.42-2.49.42-3.87,0-7.89-2.67-10.56-4.89-.12.87-.21,1.83-.21,2.79,0,.66.03,1.32.18,1.95.09.42.21.84.21,1.23,0,.66-.36,1.17-1.53,1.17-.9,0-1.23-1.92-1.23-4.56,0-6.12,1.86-16.32,3.03-16.8.21-.09.42-.12.6-.12.81,0,1.38.72,1.38,1.5,0,.15,0,.3-.36,1.17-.75,1.8-1.26,4.77-1.56,6.78,2.04-.63,9.03-2.73,10.44-2.73.57,0,1.05.24,1.05.96,0,.42-.21.84-.57,1.08-.36.24-2.94.72-3.42.84-1.74.42-4.17,1.11-7.2,2.34.84.81,2.91,2.58,6.39,4.17,1.47.66,2.67.87,3.57.87,1.68,0,2.43-.75,2.49-.84.27-.45.66-.63,1.05-.63.69,0,1.41.6,1.41,1.29,0,.54-.39,1.11-1.5,1.53Z"/>
      <path class="cls-13" d="M1384.09,604.24c-.42.24-.93.72-1.32,1.02-1.71,1.29-4.77,3.51-7.26,3.51-2.7,0-4.8-3.12-4.8-5.79,0-3.99,4.47-6.9,8.4-6.9,1.08,0,2.19.21,3,.69.18.12.3.21.3.33,0,.9-1.83,3.3-4.26,4.32-2.55,1.08-3.78.99-4.92,1.17v.39c0,1.44,1.02,3.48,2.67,3.48,2.01,0,6.12-3.3,6.48-3.72.3-.54.69-1.23,1.32-1.23s1.26.63,1.26,1.29c0,.57-.42,1.14-.87,1.44ZM1378.96,598.36s0-.06-.12-.06c-.36,0-1.26.06-2.49.63-1.17.51-2.13,1.47-2.13,1.47,0,0,1.8-.3,2.73-.72,1.05-.48,1.68-.99,1.95-1.23.03-.03.06-.06.06-.09Z"/>
      <path class="cls-13" d="M1394.41,610.12c-.84,0-1.77-.72-1.77-1.68,0-.18.03-.36.09-.54,0-1.26-.27-2.7-.3-4.59,0-.96.03-1.95.03-2.88s-.03-1.71-.12-1.71c-2.19,2.79-3.72,9.9-4.47,10.2-.39.18-.69.24-.93.24-.93,0-1.11-.87-1.11-1.8,0-.27,0-.84.03-1.08.36-3.57.15-6.33.6-9.57.12-.78.54-1.02,1.02-1.02.51,0,1.08.3,1.35.6.15.18.21.48.21.87,0,.93-.3,2.31-.3,3.54,1.17-1.98,2.85-5.16,4.2-5.16,1.59,0,2.04,3.12,2.04,7.68,0,3.18,0,4.02.06,4.23.24.45.54,1.02.54,1.56,0,.69-.51,1.11-1.17,1.11Z"/>
      <path class="cls-13" d="M1236.55,644.98c-.12.03-.21.03-.33.03-.24,0-.45-.06-.63-.15-.12,1.08-.3,3.03-.3,5.55,0,3.96.06,5.19.09,5.25.12.21.18.48.18.72,0,.66-.45,1.29-1.14,1.29-.93,0-1.5-.75-1.5-1.65,0-.27.06-.54.18-.75-.15-1.74-.21-3.75-.21-5.49,0-5.04.63-9.75,1.38-15.09-.57-.33-.81-.69-.81-1.05,0-.9,1.41-1.77,2.67-1.77,2.94,0,6.27,2.76,6.27,5.85,0,2.82-5.28,7.14-5.85,7.26ZM1237.09,634.45c-.54,2.64-.9,5.25-1.23,7.92,1.29-.72,3.9-3.06,3.9-4.92,0-1.02-1.17-2.67-2.67-3Z"/>
      <path class="cls-13" d="M1250.92,644.41c-.15.18-.36.27-.6.27-.45,0-.93-.3-1.11-.72-.72.42-2.16,1.14-3.48,1.14-1.47,0-2.55-1.11-2.55-2.64,0-2.25,2.16-4.89,4.2-4.89.87,0,1.74.51,2.4,1.77.06-.39.12-.84.12-1.35,0-1.2-.51-4.08-2.31-4.08-.81,0-1.62.51-1.65.69-.03.33-.33.51-.69.51-.6,0-1.23-.45-1.23-1.11,0-1.35,2.04-2.31,3.81-2.31,3.12,0,4.44,3.42,4.44,6.24,0,3-1.08,5.97-1.35,6.48ZM1247.35,639.91c-.99.06-2.01,1.5-2.01,2.49,0,.42.21.57.54.57.78,0,2.16-.9,2.67-1.29-.21-.57-.75-1.77-1.2-1.77ZM1251.61,628.18c-1.11,1.2-2.07,1.89-3.21,1.89-1.26,0-2.04-.75-2.04-2.1,0-1.95,1.26-4.2,3.54-4.2,1.2,0,2.79.6,2.79,2.04,0,.66-.27,1.5-1.08,2.37ZM1250.14,626.05c-.42,0-.87.12-1.2.42s-.57.81-.57,1.17c0,.06.03.18.15.18.48,0,2.1-1.2,2.1-1.5,0-.21-.27-.27-.48-.27Z"/>
      <path class="cls-13" d="M1269.58,647.08c-.81,0-1.44-.48-1.44-1.14,0-.24.09-.48.27-.72.36-.54,4.2-1.71,4.17-2.4-.42-.84-6.75-1.2-6.75-5.46,0-3.15,2.97-5.73,5.34-7.59.42-.36.96-.48,1.47-.48,1.2,0,2.49.72,2.49,1.53,0,.51-.33.96-1.08.96-.48,0-.66-.09-1.05-.24-.9.03-1.8,1.14-3.09,2.34-1.29,1.2-1.68,2.64-1.68,3.42,0,2.97,7.02,2.1,7.02,5.67,0,1.53-4.5,4.11-5.67,4.11Z"/>
      <path class="cls-13" d="M1293.73,643.69c-.27.09-.63.3-1.17.48-.81.3-1.65.42-2.49.42-3.87,0-7.89-2.67-10.56-4.89-.12.87-.21,1.83-.21,2.79,0,.66.03,1.32.18,1.95.09.42.21.84.21,1.23,0,.66-.36,1.17-1.53,1.17-.9,0-1.23-1.92-1.23-4.56,0-6.12,1.86-16.32,3.03-16.8.21-.09.42-.12.6-.12.81,0,1.38.72,1.38,1.5,0,.15,0,.3-.36,1.17-.75,1.8-1.26,4.77-1.56,6.78,2.04-.63,9.03-2.73,10.44-2.73.57,0,1.05.24,1.05.96,0,.42-.21.84-.57,1.08-.36.24-2.94.72-3.42.84-1.74.42-4.17,1.11-7.2,2.34.84.81,2.91,2.58,6.39,4.17,1.47.66,2.67.87,3.57.87,1.68,0,2.43-.75,2.49-.84.27-.45.66-.63,1.05-.63.69,0,1.41.6,1.41,1.29,0,.54-.39,1.11-1.5,1.53Z"/>
      <path class="cls-13" d="M1299.37,651.34c-1.92,6.54-6.33,8.79-9.9,8.79s-6.54-2.55-6.54-6.3c0-.9.33-2.97,1.14-2.97.6,0,.66.63.66,1.29v.75c0,2.82,1.23,4.92,4.71,4.92s6.9-3.54,7.56-8.01c.21-1.44.3-2.94.3-4.35,0-3.48-.57-6.84-1.23-10.38-.06-.27-.33-.39-.33-.93,0-.69.6-1.11,1.32-1.11.39,0,.78.12,1.08.42.6.6,1.77,7.2,1.77,12.69,0,1.98-.15,3.84-.54,5.19ZM1298.2,626.56c-.87,0-1.41-.96-1.41-1.86,0-.72.45-1.23,1.23-1.23s1.29.69,1.29,1.56c0,1.05-.54,1.53-1.11,1.53Z"/>
      <path class="cls-13" d="M1315.18,640.24c-.42.24-.93.72-1.32,1.02-1.71,1.29-4.77,3.51-7.26,3.51-2.7,0-4.8-3.12-4.8-5.79,0-3.99,4.47-6.9,8.4-6.9,1.08,0,2.19.21,3,.69.18.12.3.21.3.33,0,.9-1.83,3.3-4.26,4.32-2.55,1.08-3.78.99-4.92,1.17v.39c0,1.44,1.02,3.48,2.67,3.48,2.01,0,6.12-3.3,6.48-3.72.3-.54.69-1.23,1.32-1.23s1.26.63,1.26,1.29c0,.57-.42,1.14-.87,1.44ZM1310.05,634.36s0-.06-.12-.06c-.36,0-1.26.06-2.49.63-1.17.51-2.13,1.47-2.13,1.47,0,0,1.8-.3,2.73-.72,1.05-.48,1.68-.99,1.95-1.23.03-.03.06-.06.06-.09Z"/>
      <path class="cls-13" d="M1328.08,634.15c-.42,0-.72-.24-1.11-.24-.15,0-.33.06-.54.18-1.68.96-3.75,3.3-5.73,6.36-.96,1.44-.57,3.6-1.08,4.23-.27.36-.63.48-.99.48-.84,0-1.53-.51-1.53-1.44,0-.27.03-.66.09-1.02.27-1.53.51-3.33.51-5.1,0-1.56-.18-3.12-.66-4.44-.03-.09-.06-.21-.06-.33,0-.6.69-1.05,1.38-1.05,1.59,0,1.68,2.01,1.68,3.42,0,.99.03,1.53.03,2.19,1.02-1.29,3.63-4.29,5.22-5.19.57-.33,1.2-.54,1.92-.54.93,0,2.1.27,2.1,1.47,0,.57-.6,1.02-1.23,1.02Z"/>
      <path class="cls-13" d="M1344.7,644.08c-.42,0-.81-.15-1.05-.6-.24-.42-.3-1.26-.3-2.31,0-1.68.18-3.81.18-5.37,0-1.02-.09-2.19-.45-2.19-.75,0-4.11,9.27-4.38,10.2-.3,1.17-.69,1.62-1.17,1.62-1.47,0-1.47-1.8-1.5-2.43-.03-1.62-.03-6.99-.3-8.34-.03-.18-.09-.27-.21-.3-.27,0-.63,1.02-1.23,2.34-.69,1.53-1.86,4.65-1.86,6.75,0,.3.06.57.06.96,0,.69-.78.96-1.41.96-1.14,0-1.32-.54-1.32-1.68,0-1.89.51-5.28.51-7.47,0-.54-.09-1.08-.09-1.71,0-.81.39-1.44,1.26-1.44.69,0,1.38.51,1.47,1.23.72-1.29,2.04-3.3,2.82-3.3.69,0,1.47.69,1.77,1.23.3.51.54,2.28.72,5.73,1.2-2.4,3.45-6.93,5.19-6.93.96,0,2.01,1.35,2.19,2.01.21.78.27,2.94.27,4.89,0,1.2-.06,2.43-.06,3.69,0,.42.27.87.27,1.35,0,.78-.69,1.11-1.38,1.11Z"/>
      <path class="cls-13" d="M1361.02,640.24c-.42.24-.93.72-1.32,1.02-1.71,1.29-4.77,3.51-7.26,3.51-2.7,0-4.8-3.12-4.8-5.79,0-3.99,4.47-6.9,8.4-6.9,1.08,0,2.19.21,3,.69.18.12.3.21.3.33,0,.9-1.83,3.3-4.26,4.32-2.55,1.08-3.78.99-4.92,1.17v.39c0,1.44,1.02,3.48,2.67,3.48,2.01,0,6.12-3.3,6.48-3.72.3-.54.69-1.23,1.32-1.23s1.26.63,1.26,1.29c0,.57-.42,1.14-.87,1.44ZM1355.89,634.36s0-.06-.12-.06c-.36,0-1.26.06-2.49.63-1.17.51-2.13,1.47-2.13,1.47,0,0,1.8-.3,2.73-.72,1.05-.48,1.68-.99,1.95-1.23.03-.03.06-.06.06-.09Z"/>
      <path class="cls-13" d="M1371.34,646.12c-.84,0-1.77-.72-1.77-1.68,0-.18.03-.36.09-.54,0-1.26-.27-2.7-.3-4.59,0-.96.03-1.95.03-2.88s-.03-1.71-.12-1.71c-2.19,2.79-3.72,9.9-4.47,10.2-.39.18-.69.24-.93.24-.93,0-1.11-.87-1.11-1.8,0-.27,0-.84.03-1.08.36-3.57.15-6.33.6-9.57.12-.78.54-1.02,1.02-1.02.51,0,1.08.3,1.35.6.15.18.21.48.21.87,0,.93-.3,2.31-.3,3.54,1.17-1.98,2.85-5.16,4.2-5.16,1.59,0,2.04,3.12,2.04,7.68,0,3.18,0,4.02.06,4.23.24.45.54,1.02.54,1.56,0,.69-.51,1.11-1.17,1.11Z"/>
      <path class="cls-13" d="M1399.81,626.2c-.18.48-1.08,7.8-1.32,12.06.93.27,1.29.72,1.29,1.17,0,.66-.72,1.35-1.77,1.71,0,1.44-.15,3.12-.93,3.12-.96,0-1.47-.78-1.62-1.71-1.26.78-4.41,2.52-6.87,2.52-2.13,0-3.33-1.53-3.33-3.54,0-3.75,4.68-7.86,7.41-7.86,1.44,0,2.73.93,3.6,2.28.33-2.7.96-8.67.96-9.69,0-.39-.15-.78-.15-1.26,0-.99.48-1.38,1.05-1.38.81,0,1.8.81,1.8,1.89,0,.24-.03.45-.12.69ZM1392.61,635.98c-2.16,0-4.89,3.72-4.89,5.67,0,.66.39,1.17,1.14,1.17,1.83,0,5.22-2.34,6.18-2.91-.18-1.14-.72-3.93-2.43-3.93Z"/>
      <path class="cls-13" d="M1405.18,624.94c-.36.99-.75,1.26-.84,2.37-.03.63-.6,1.05-1.11,1.05-.63,0-.93-.6-.93-1.23,0-.99.6-2.34.87-3.06.33-.81.81-1.11,1.2-1.11.57,0,1.02.54,1.02,1.05,0,.3-.09.57-.21.93ZM1404.67,641.08c0,.81.36,1.38.36,1.98,0,.78-.63,1.44-1.29,1.44-1.32,0-1.32-1.89-1.32-2.91,0-1.62.18-3.51.27-5.94.03-.96-.15-3.6,1.26-3.69.75,0,1.38.72,1.38,1.59s-.66,6.03-.66,7.53Z"/>
      <path class="cls-13" d="M1417.15,646.12c-.84,0-1.77-.72-1.77-1.68,0-.18.03-.36.09-.54,0-1.26-.27-2.7-.3-4.59,0-.96.03-1.95.03-2.88s-.03-1.71-.12-1.71c-2.19,2.79-3.72,9.9-4.47,10.2-.39.18-.69.24-.93.24-.93,0-1.11-.87-1.11-1.8,0-.27,0-.84.03-1.08.36-3.57.15-6.33.6-9.57.12-.78.54-1.02,1.02-1.02.51,0,1.08.3,1.35.6.15.18.21.48.21.87,0,.93-.3,2.31-.3,3.54,1.17-1.98,2.85-5.16,4.2-5.16,1.59,0,2.04,3.12,2.04,7.68,0,3.18,0,4.02.06,4.23.24.45.54,1.02.54,1.56,0,.69-.51,1.11-1.17,1.11Z"/>
    </g>
    <text class="cls-14" transform="translate(.45 259.7)"><tspan class="cls-11" x="0" y="0">U</tspan><tspan x="19.26" y="0">n</tspan><tspan class="cls-9" x="30.78" y="0">n</tspan><tspan class="cls-8" x="42.93" y="0">g</tspan><tspan x="56.79" y="0">  by</tspan><tspan class="cls-19" x="125.82" y="0">t</tspan><tspan class="cls-7" x="136.71" y="0">t</tspan><tspan x="146.79" y="0">e ut </tspan><tspan class="cls-7" x="0" y="36">t</tspan><tspan x="10.08" y="36">e</tspan><tspan class="cls-18" x="24.66" y="36">l</tspan><tspan x="31.05" y="36">e</tspan><tspan class="cls-4" x="45.63" y="36">f</tspan><tspan x="56.7" y="36">onen </tspan><tspan class="cls-18" x="117.18" y="36">d</tspan><tspan x="132.3" y="36">in o</tspan><tspan class="cls-7" x="174.15" y="36">ft</tspan><tspan x="190.83" y="36">e </tspan><tspan x="0" y="72">(d</tspan><tspan class="cls-4" x="25.65" y="72">e</tspan><tspan x="39.6" y="72">t </tspan><tspan class="cls-4" x="63.18" y="72">f</tspan><tspan x="74.25" y="72"></tspan><tspan class="cls-12" x="85.41" y="72">r</tspan><tspan x="96.69" y="72">er til m</tspan><tspan class="cls-9" x="189.42" y="72">y</tspan><tspan x="201.84" y="72">e </tspan><tspan x="0" y="108">e-</tspan><tspan class="cls-18" x="29.61" y="108">a</tspan><tspan x="40.32" y="108">vf</tspan><tspan class="cls-6" x="65.31" y="108">a</tspan><tspan x="76.2" y="108">ll)</tspan></text>
    <text class="cls-14" transform="translate(558.33 63.22)"><tspan class="cls-10" x="0" y="0">K</tspan><tspan x="18.72" y="0">ob</tspan><tspan class="cls-18" x="41.4" y="0">l</tspan><tspan x="47.79" y="0">e </tspan><tspan class="cls-18" x="74.07" y="0">fr</tspan><tspan x="96.57" y="0">a s</tspan><tspan class="cls-3" x="130.05" y="0">t</tspan><tspan class="cls-10" x="142.65" y="0">r</tspan><tspan x="153.57" y="0">mmen </tspan><tspan x="0" y="36">nr du </tspan><tspan class="cls-11" x="84.63" y="36">i</tspan><tspan x="91.56" y="36">k</tspan><tspan class="cls-1" x="109.2" y="36">k</tspan><tspan x="125.76" y="36">e b</tspan><tspan class="cls-15" x="163.56" y="36">r</tspan><tspan class="cls-18" x="176.46" y="36">u</tspan><tspan class="cls-1" x="186.63" y="36">k</tspan><tspan x="203.19" y="36">er </tspan><tspan class="cls-5" x="241.83" y="36">	</tspan><tspan class="cls-17" x="0" y="72">	</tspan><tspan x="106.09" y="72">enh</tspan><tspan class="cls-4" x="146.41" y="72">e</tspan><tspan class="cls-7" x="160.36" y="72">t</tspan><tspan x="170.44" y="72" xml:space="preserve">ene                       </tspan><tspan class="cls-16" x="480.22" y="72">	</tspan><tspan class="cls-17" x="0" y="108">	</tspan><tspan x="106.09" y="108" xml:space="preserve">   </tspan><tspan class="cls-18" x="141.19" y="108">d</tspan><tspan x="156.31" y="108">ine</tspan></text>
  </g>
</svg>