<?xml version="1.0" encoding="UTF-8"?>
<svg id="Layer_2" data-name="Layer 2" xmlns="http://www.w3.org/2000/svg" viewBox="0 0 897.46 475.85">
  <defs>
    <style>
      .cls-1 {
        fill: #0d0708;
      }

      .cls-1, .cls-2 {
        stroke: #231f20;
        stroke-miterlimit: 10;
      }

      .cls-2 {
        fill: #fff;
      }
    </style>
  </defs>
  <g id="Layer_1-2" data-name="Layer 1">
    <g>
      <path class="cls-1" d="M802.97,475.11c-.6.38-1.16.3-1.68-.16"/>
      <path class="cls-1" d="M676.81,230.44c11.16-36.85,24.78-73.02,39.93-108.39.54-9.08,5.02-16.7,10.82-22.93,18.25-19.62,39.88-33.6,67.25-36.94,20.46-4.81,44.02-12.29,59.04,7.61,12.58,14.21,33.93,22.65,36.73,43.5,1.78,5.4,3.35,10.83,2.95,16.61-.57,6.09,4.71,11.59,1.77,17.91-3.2,5.15-.99,15.3-7.42,17.61-4.6-1.84-1.92-8.64-3.89-12.38-4.08-28.81-11.09-67.17-45.36-73.41-31.88-2.69-41.43,33.22-43.35,58.66-2.49,26.46,11.15,47.5,22.3,69.56,3.29,9.25,10.48,13.72,19.55,14.71,14.1,1.55,36.38-3.28,41.44-22.07.67-2.47-8.77-57.48,17.61-56.29,4.15,25.58-9.35,101.93-15.69,126.86"/>
      <path class="cls-2" d="M886.07,153.06c1.28,42.41-9.22,86.05-60.92,68.26-9.92-8.87-14.97-22.96-20.63-34.86-2.24-6.09-6.92-10.78-8.27-17.57-8.02-34-3.75-90.36,41.01-92.37,36.65,4.86,45.71,45.73,48.79,76.54h.02Z"/>
    </g>
    <g>
      <path class="cls-1" d="M.77,279.68c-1.58-26.21,4.11-51.37,10.07-76.42-4.95-14.61,1.47-28.48,2.58-42.69.99-22.13,5.27-44.89,17.94-63.05,10.59-24.78,22.31-48.12,42.32-66.99C98.38,4.62,155.21-8.08,187.14,6.92c25.26,9.97,49.91,25.25,57.8,53.96,3.47,10.67,6.46,21.65,12.16,31.57,5.74,9.95-.68,20.8.17,31.49.12,5.27-2.01,10.61-.46,16.31,6.95,39.91,2.84,82.26-8.25,120.95"/>
      <path class="cls-2" d="M231.2,108.37c-2.43,97.02-102.81,43.37-124.78-13.64-6.24-11.67-4.8-24.05-2.15-36.16,5.33-18.49,29.81-19.19,44.17-28.34,46.18-17.99,83.73,36.32,82.75,78.15h.01Z"/>
    </g>
  </g>
</svg>