<?xml version="1.0" encoding="UTF-8"?>
<svg id="Layer_2" data-name="Layer 2" xmlns="http://www.w3.org/2000/svg" viewBox="0 0 1514.78 76.33">
  <defs>
    <style>
      .cls-1 {
        letter-spacing: .05em;
      }

      .cls-2 {
        letter-spacing: 0em;
      }

      .cls-3 {
        letter-spacing: -.02em;
      }

      .cls-4 {
        letter-spacing: -.08em;
      }

      .cls-5 {
        letter-spacing: -.02em;
      }

      .cls-6 {
        letter-spacing: -.02em;
      }

      .cls-7 {
        letter-spacing: -.07em;
      }

      .cls-8 {
        letter-spacing: 0em;
      }

      .cls-9 {
        letter-spacing: -.03em;
      }

      .cls-10 {
        letter-spacing: -.03em;
      }

      .cls-11 {
        letter-spacing: -.03em;
      }

      .cls-12 {
        letter-spacing: 0em;
      }

      .cls-13 {
        letter-spacing: -.01em;
      }

      .cls-14 {
        letter-spacing: -.01em;
      }

      .cls-15 {
        letter-spacing: -.06em;
      }

      .cls-16 {
        letter-spacing: -.06em;
      }

      .cls-17 {
        letter-spacing: -.02em;
      }

      .cls-18 {
        letter-spacing: .08em;
      }

      .cls-19 {
        letter-spacing: -.02em;
      }

      .cls-20 {
        letter-spacing: -.02em;
      }

      .cls-21 {
        letter-spacing: -.02em;
      }

      .cls-22 {
        letter-spacing: -.04em;
      }

      .cls-23 {
        letter-spacing: -.04em;
      }

      .cls-24 {
        letter-spacing: -.04em;
      }

      .cls-25 {
        letter-spacing: -.02em;
      }

      .cls-26 {
        letter-spacing: -.07em;
      }

      .cls-27 {
        letter-spacing: -.04em;
      }

      .cls-28 {
        letter-spacing: -.07em;
      }

      .cls-29 {
        letter-spacing: -.04em;
      }

      .cls-30 {
        letter-spacing: -.06em;
      }

      .cls-31 {
        letter-spacing: .02em;
      }

      .cls-32 {
        letter-spacing: .06em;
      }

      .cls-33 {
        letter-spacing: .06em;
      }

      .cls-34 {
        letter-spacing: .03em;
      }

      .cls-35 {
        letter-spacing: .03em;
      }

      .cls-36 {
        letter-spacing: -.04em;
      }

      .cls-37 {
        fill: #231f20;
        font-family: Marydale-Bold, Marydale;
        font-size: 20.04px;
        font-weight: 700;
      }

      .cls-37, .cls-38 {
        isolation: isolate;
      }

      .cls-39 {
        letter-spacing: 0em;
      }

      .cls-40 {
        letter-spacing: -.02em;
      }

      .cls-41 {
        letter-spacing: -.02em;
      }

      .cls-42 {
        letter-spacing: -.06em;
      }

      .cls-43 {
        letter-spacing: -.06em;
      }

      .cls-44 {
        letter-spacing: -.03em;
      }

      .cls-45 {
        letter-spacing: -.03em;
      }

      .cls-46 {
        letter-spacing: -.03em;
      }
    </style>
  </defs>
  <g id="Layer_1-2" data-name="Layer 1">
    <g class="cls-38">
      <g class="cls-38">
        <text class="cls-37" transform="translate(.24 17.03)"><tspan class="cls-1" x="0" y="0">T</tspan><tspan x="13.71" y="0">I</tspan><tspan class="cls-34" x="18.7" y="0">K</tspan><tspan class="cls-28" x="32.76" y="0">T</tspan><tspan class="cls-8" x="44.07" y="0">OK </tspan><tspan class="cls-10" x="79.3" y="0">2</tspan><tspan x="89.4" y="0">.63 g</tspan><tspan class="cls-23" x="132.08" y="0">c</tspan><tspan x="141.46" y="0">o2e/minu</tspan><tspan class="cls-45" x="208.91" y="0">t</tspan><tspan x="216.19" y="0">t h</tspan><tspan class="cls-45" x="241.44" y="0">t</tspan><tspan x="248.71" y="0">tps://ww</tspan><tspan class="cls-43" x="317.47" y="0">w</tspan><tspan x="330.48" y="0">.</tspan><tspan class="cls-22" x="335.1" y="0">c</tspan><tspan x="344.48" y="0">om</tspan><tspan class="cls-41" x="364.56" y="0">p</tspan><tspan x="371.48" y="0">a</tspan><tspan class="cls-27" x="378.93" y="0">r</tspan><tspan class="cls-3" x="386.47" y="0">e</tspan><tspan x="395.79" y="0">th</tspan><tspan class="cls-17" x="413.22" y="0">e</tspan><tspan x="422.6" y="0">mar</tspan><tspan class="cls-27" x="450.93" y="0">k</tspan><tspan class="cls-3" x="462" y="0">e</tspan><tspan class="cls-26" x="471.32" y="0">t</tspan><tspan x="477.81" y="0">.</tspan><tspan class="cls-22" x="482.44" y="0">c</tspan><tspan class="cls-39" x="491.82" y="0">om.au/ene</tspan><tspan class="cls-36" x="565.4" y="0">r</tspan><tspan x="572.76" y="0">gy/fea</tspan><tspan class="cls-3" x="622.41" y="0">t</tspan><tspan class="cls-2" x="629.93" y="0">u</tspan><tspan class="cls-29" x="637.02" y="0">r</tspan><tspan x="644.56" y="0">es/so</tspan><tspan class="cls-30" x="683.09" y="0">c</tspan><tspan class="cls-9" x="692.17" y="0">i</tspan><tspan class="cls-12" x="696.56" y="0">a</tspan><tspan class="cls-39" x="703.84" y="0">l-</tspan><tspan class="cls-41" x="718.44" y="0">c</tspan><tspan class="cls-39" x="728.36" y="0">arbon-</tspan><tspan class="cls-3" x="776.96" y="0">f</tspan><tspan x="784.35" y="0">ootp</tspan><tspan class="cls-41" x="813.27" y="0">r</tspan><tspan x="821.23" y="0">int-</tspan><tspan class="cls-40" x="851.89" y="0">c</tspan><tspan class="cls-12" x="861.81" y="0">a</tspan><tspan class="cls-39" x="869.08" y="0">l</tspan><tspan class="cls-9" x="873.65" y="0">c</tspan><tspan class="cls-17" x="883.27" y="0">ul</tspan><tspan class="cls-39" x="894.21" y="0">a</tspan><tspan class="cls-42" x="901.67" y="0">t</tspan><tspan x="908.34" y="0">or/ • </tspan><tspan class="cls-22" x="954.59" y="0">V</tspan><tspan x="966.26" y="0">i </tspan><tspan class="cls-3" x="979.06" y="0">f</tspan><tspan x="986.46" y="0">o</tspan><tspan class="cls-31" x="993.91" y="0">r</tspan><tspan x="1002.53" y="0">ut</tspan><tspan class="cls-41" x="1017.56" y="0">s</tspan><tspan class="cls-3" x="1024.35" y="0">e</tspan><tspan class="cls-44" x="1033.67" y="0">t</tspan><tspan class="cls-15" x="1040.94" y="0">t</tspan><tspan x="1047.68" y="0">er at å kjø</tspan><tspan class="cls-27" x="1136.49" y="0">r</tspan><tspan x="1144.03" y="0">e en bil </tspan><tspan class="cls-16" x="1211.9" y="0">1</tspan><tspan x="1218.64" y="0">.6km (1 mi</tspan><tspan class="cls-41" x="1305.51" y="0">l</tspan><tspan x="1309.78" y="0">e) </tspan><tspan class="cls-17" x="1335.39" y="0">g</tspan><tspan x="1344.65" y="0">ene</tspan><tspan class="cls-27" x="1371.82" y="0">r</tspan><tspan x="1379.35" y="0">e</tspan><tspan class="cls-27" x="1389.09" y="0">r</tspan><tspan class="cls-39" x="1396.63" y="0">er </tspan><tspan class="cls-3" x="1422.44" y="0">4</tspan><tspan x="1433.26" y="0">04</tspan><tspan class="cls-33" x="1457.13" y="0">g</tspan><tspan class="cls-2" x="1467.95" y="0"> </tspan><tspan class="cls-19" x="1475.77" y="0">C</tspan><tspan class="cls-39" x="1489.89" y="0">O2</tspan></text>
      </g>
      <g class="cls-38">
        <text class="cls-37" transform="translate(.24 41.08)"><tspan x="0" y="0">En </tspan><tspan class="cls-5" x="28.8" y="0">t</tspan><tspan class="cls-8" x="36.31" y="0">ur til månen: 9</tspan><tspan class="cls-4" x="152.74" y="0">6</tspan><tspan x="161.04" y="0">.5</tspan><tspan class="cls-18" x="177.99" y="0">T</tspan><tspan class="cls-8" x="192.36" y="0"> </tspan><tspan class="cls-20" x="200.18" y="0">C</tspan><tspan x="214.3" y="0">O2 (</tspan><tspan class="cls-5" x="253.5" y="0">t</tspan><tspan x="261.02" y="0">ur/</tspan><tspan class="cls-29" x="283.52" y="0">r</tspan><tspan class="cls-6" x="291.06" y="0">et</tspan><tspan x="307.89" y="0">ur: 193</tspan><tspan class="cls-18" x="366.43" y="0">T</tspan><tspan x="380.79" y="0"> </tspan><tspan class="cls-21" x="388.61" y="0">C</tspan><tspan class="cls-39" x="402.74" y="0">O2)</tspan><tspan class="cls-16" x="435.44" y="0">1</tspan><tspan x="442.18" y="0">.1 akti</tspan><tspan class="cls-46" x="492.92" y="0">v</tspan><tspan x="501.25" y="0">e b</tspan><tspan class="cls-31" x="526.5" y="0">r</tspan><tspan class="cls-13" x="535.12" y="0">u</tspan><tspan class="cls-29" x="541.91" y="0">k</tspan><tspan x="552.98" y="0">e</tspan><tspan class="cls-27" x="562.71" y="0">r</tspan><tspan x="570.25" y="0">e </tspan><tspan class="cls-13" x="587.8" y="0">p</tspan><tspan class="cls-39" x="594.72" y="0">å </tspan><tspan class="cls-1" x="609.99" y="0">T</tspan><tspan x="623.7" y="0">I</tspan><tspan class="cls-35" x="628.69" y="0">K</tspan><tspan class="cls-26" x="642.75" y="0">T</tspan><tspan x="654.06" y="0">OK i 5 min/</tspan><tspan class="cls-25" x="754.7" y="0">d</tspan><tspan class="cls-39" x="764.68" y="0">a</tspan><tspan class="cls-32" x="772.13" y="0">g</tspan><tspan x="782.95" y="0" xml:space="preserve"> = 1</tspan><tspan class="cls-3" x="818.18" y="0">4</tspan><tspan x="829" y="0">8 til månen, el</tspan><tspan class="cls-40" x="945.03" y="0">l</tspan><tspan class="cls-2" x="949.3" y="0" xml:space="preserve">er  74 </tspan><tspan class="cls-25" x="1013.11" y="0">t</tspan><tspan x="1020.62" y="0">u</tspan><tspan class="cls-27" x="1027.72" y="0">r</tspan><tspan class="cls-39" x="1035.25" y="0">er </tspan><tspan class="cls-25" x="1061.06" y="0">t</tspan><tspan x="1068.58" y="0">ur/</tspan><tspan class="cls-27" x="1091.08" y="0">r</tspan><tspan class="cls-3" x="1098.62" y="0">et</tspan><tspan x="1115.45" y="0">u</tspan><tspan class="cls-7" x="1122.54" y="0">r</tspan><tspan x="1129.42" y="0">. • Avs</tspan><tspan class="cls-11" x="1185.73" y="0">t</tspan><tspan class="cls-39" x="1193.06" y="0">and </tspan><tspan class="cls-24" x="1226.43" y="0">J</tspan><tspan x="1237.07" y="0">o</tspan><tspan class="cls-7" x="1244.53" y="0">r</tspan><tspan x="1251.4" y="0">den–månen: 384</tspan><tspan class="cls-3" x="1385.46" y="0">3</tspan><tspan x="1395.75" y="0">9</tspan><tspan class="cls-26" x="1407.67" y="0">9</tspan><tspan x="1418.15" y="0">.861 km </tspan></text>
      </g>
      <g class="cls-38">
        <text class="cls-37" transform="translate(.24 65.12)"><tspan x="0" y="0">(</tspan><tspan class="cls-14" x="6.73" y="0">2</tspan><tspan x="17.13" y="0">38</tspan><tspan class="cls-41" x="40.46" y="0">8</tspan><tspan class="cls-8" x="52.78" y="0">55 mi</tspan><tspan class="cls-14" x="102.86" y="0">l</tspan><tspan x="107.13" y="0">es)</tspan></text>
      </g>
    </g>
  </g>
</svg>