<?xml version="1.0" encoding="UTF-8"?>
<svg id="Layer_2" data-name="Layer 2" xmlns="http://www.w3.org/2000/svg" viewBox="0 0 475.37 267.01">
  <defs>
    <style>
      .cls-1 {
        letter-spacing: -.04em;
      }

      .cls-2 {
        letter-spacing: .02em;
      }

      .cls-3 {
        letter-spacing: -.02em;
      }

      .cls-4 {
        letter-spacing: -.03em;
      }

      .cls-5 {
        fill: #035ca7;
      }

      .cls-5, .cls-6 {
        stroke-width: 0px;
      }

      .cls-7 {
        fill: #231f20;
        font-family: Marydale-Bold, Marydale;
        font-size: 36px;
        font-weight: 700;
      }

      .cls-7, .cls-8 {
        isolation: isolate;
      }

      .cls-9 {
        letter-spacing: .02em;
      }

      .cls-10 {
        letter-spacing: .04em;
      }

      .cls-6 {
        fill: #0da15c;
      }

      .cls-11 {
        letter-spacing: -.02em;
      }

      .cls-12 {
        letter-spacing: -.01em;
      }

      .cls-13 {
        letter-spacing: -.06em;
      }

      .cls-14 {
        letter-spacing: 0em;
      }
    </style>
  </defs>
  <g id="Layer_1-2" data-name="Layer 1">
    <g>
      <path class="cls-5" d="M15.92,48.53L.08,0h6.77l7.56,23.91c7.43,22.57,3.03,22.12,10.86.08L33.48,0h6.7l-17.35,48.53s-6.93.02-6.91,0h0Z"/>
      <path class="cls-5" d="M67.11,31.75c-1.22,13.15,13.32,14.76,20.59,10.65l1.15,4.46c-6.98,4-21.39,3.5-24.84-5.25-3.67,10.68-24.65,9.96-23.83-2.24,0-8.06,7.49-12.75,21.03-12.6,0-3.01-.18-8.76-8.14-9.22-8.43-.22-8.34,6.17-10.44-1.52,7.13-4.87,19.88-4.34,22.24,4.25,2.38-4.61,6.7-7.42,12.17-7.42,11.88.37,14.3,11.81,13.39,18.87,0,.02-23.39-.04-23.32.02h0ZM61.28,31.03c-14.74-1.83-20.49,11.66-8.78,13.61,8.28-.1,9.33-7.46,8.78-13.61ZM84.54,27.21c.82-13.15-17.29-12.41-17.5,0h17.5Z"/>
      <path class="cls-5" d="M98.5,24.55c0-4.1-.07-7.63-.29-10.87,8.01-.09,4.96-.78,5.76,6.84,2.3-4.66,6.44-8.75,11.74-7.41v5.98c-6.42-1.67-11.2,4.44-10.95,10.87v18.58h-6.26v-23.99h0Z"/>
      <path class="cls-5" d="M140.84,32.25c-.28,13.21,13.95,13.77,21.6,10.3l1.08,4.54c-2.23,1.01-6.05,2.16-11.59,2.16-22.84,1.53-22.24-36.9-.79-36.36,12.69.28,15.1,11.69,14.18,19.37,0,0-24.5.02-24.48,0h0ZM159.41,27.72c.81-13.68-17.81-13.33-18.51,0h18.51Z"/>
      <path class="cls-5" d="M173.38,23.11c0-3.6-.07-6.55-.29-9.43,7.16.03,5.38-1.16,5.98,5.76,5.79-9.49,23.84-10.35,23.97,8.28v20.81h-6.34c-1.46-7.62,4.89-30.49-8.07-30.39-13.7-.04-7.69,22.5-8.93,30.38h-6.34s-.04-25.48.02-25.41h0Z"/>
      <path class="cls-6" d="M5.05,103.11c0-3.6-.07-6.55-.29-9.43,7.03.06,5.32-1.2,5.83,5.62,3.73-7.4,17.75-9.47,21.04.57,6.58-10.44,22.86-10.78,23.18,8.13v20.52h-6.19c-1.21-7.19,4.26-30.93-7.56-30.46-12.72.17-6.65,23.15-7.99,30.46h-6.19v-20.88c.67-13.52-15.76-11.48-15.62-.14v21.03h-6.19s.03-25.46-.02-25.42h0Z"/>
      <path class="cls-6" d="M72.15,83.88c.39,4.94-8.08,5.18-7.85,0-.17-5.08,8.06-5.21,7.85,0ZM65.09,128.53v-34.85h6.34v34.85h-6.34Z"/>
      <path class="cls-6" d="M81.94,77.4h6.34v51.12h-6.34s0-51.12,0-51.12Z"/>
      <path class="cls-6" d="M90.44,138.61c9.06-1.45,8.93-3.72,9.29-15.76v-29.16h6.34v31.61c.63,11.34-5,18.29-14.98,18.29,0,0-.65-4.97-.65-4.98h0ZM106.78,83.88c.42,4.99-8.15,5.09-7.85,0-.21-5.08,8.16-5.25,7.85,0Z"/>
      <path class="cls-6" d="M139.9,95.41l3.02-4.32,2.81,1.94-3.02,4.46c11.7,10.88,2.33,33.49-11.73,31.83-8.83.38-7.32-5.93-12.03,1.94l-2.66-2.16,3.02-4.32c-14.68-14.31,2.4-40.79,20.59-29.37h0ZM137.02,99.73c-12.6-8.8-22.13,10.89-14.26,20.23l14.26-20.23ZM124.92,122.55c11.6,8.46,22.1-9.91,14.26-20.02l-14.26,20.02Z"/>
      <path class="cls-5" d="M186.05,77.4c.07,6.68-.26,45.37.29,51.12h-5.69c-.12-.06-.07-6.28-.43-6.05-7.3,13.15-27.99,5.98-26.79-10.87-.07-11.59,7.13-18.72,15.62-18.72,5.51-.08,8.82,2.74,10.65,5.33v-20.81h6.35ZM179.72,107.86c.12-5.15-3.65-10-9.43-10-13.35-.73-14.34,26.85-.14,26.36,8.61.18,10.41-9.29,9.57-16.36h0Z"/>
      <path class="cls-5" d="M200.09,112.25c-.28,13.21,13.95,13.77,21.6,10.3l1.08,4.54c-2.23,1.01-6.05,2.16-11.59,2.16-22.84,1.53-22.24-36.9-.79-36.36,12.69.28,15.1,11.69,14.18,19.37,0,0-24.5.02-24.48,0h0ZM218.67,107.72c.81-13.68-17.81-13.33-18.51,0h18.51Z"/>
      <path class="cls-5" d="M240.27,83.67c.7,11.98-3.52,9.9,9.07,10.01v4.82h-9.07v18.79c-.57,6.38,4.08,7.68,8.42,6.34l.29,4.75c-19.88,6.59-14.14-18.52-14.91-29.88h-5.4c-.08-6.67-.65-4.47,5.4-4.82.61-9.45-2.75-7.71,6.2-10.01h0Z"/>
      <path class="cls-5" d="M259.56,112.25c-.28,13.21,13.95,13.77,21.6,10.3l1.08,4.54c-2.23,1.01-6.05,2.16-11.59,2.16-22.84,1.53-22.24-36.9-.79-36.36,12.69.28,15.1,11.69,14.18,19.37,0,0-24.5.02-24.48,0h0ZM278.14,107.72c.81-13.68-17.81-13.33-18.51,0h18.51Z"/>
      <path class="cls-5" d="M298.37,109.66c2.15-2.61,11-13.17,13.46-15.98h7.63l-13.47,14.33,15.34,20.52h-7.71l-12.02-16.71-3.24,3.6v13.1h-6.26v-51.12h6.26s-.02,32.28,0,32.26h0Z"/>
      <path class="cls-5" d="M333.51,83.67c.7,11.98-3.52,9.9,9.07,10.01v4.82h-9.07v18.79c-.57,6.38,4.08,7.68,8.42,6.34l.29,4.75c-19.88,6.59-14.14-18.52-14.91-29.88h-5.4c-.08-6.67-.65-4.47,5.4-4.82.61-9.45-2.75-7.71,6.2-10.01h0Z"/>
      <path class="cls-5" d="M356.76,83.88c.39,4.94-8.08,5.18-7.85,0-.17-5.08,8.06-5.21,7.85,0ZM349.71,128.53v-34.85h6.34v34.85h-6.34Z"/>
      <path class="cls-5" d="M369,93.68c13.91,36.34,5.7,36.53,19.59,0h6.62l-13.68,34.85h-6.05l-13.25-34.85h6.77Z"/>
    </g>
    <g class="cls-8">
      <g class="cls-8">
        <text class="cls-7" transform="translate(0 203.69)"><tspan x="0" y="0">Se om du kan finne ut h</tspan><tspan class="cls-1" x="348.62" y="0">v</tspan><tspan x="363.27" y="0">or s</tspan><tspan class="cls-13" x="418.28" y="0">t</tspan><tspan x="430.27" y="0">o</tspan><tspan class="cls-9" x="443.66" y="0">r</tspan><tspan x="459.14" y="0">t</tspan></text>
      </g>
      <g class="cls-8">
        <text class="cls-7" transform="translate(0 246.89)"><tspan x="0" y="0">karbon</tspan><tspan class="cls-3" x="90.43" y="0">f</tspan><tspan x="103.71" y="0">o</tspan><tspan class="cls-4" x="117.11" y="0">t</tspan><tspan class="cls-12" x="130.28" y="0">a</tspan><tspan class="cls-10" x="143.13" y="0">v</tspan><tspan class="cls-2" x="160.38" y="0">t</tspan><tspan x="175.5" y="0">rykk du </tspan><tspan class="cls-11" x="306.32" y="0">h</tspan><tspan class="cls-14" x="322.84" y="0">ar</tspan></text>
      </g>
    </g>
  </g>
</svg>