<?xml version="1.0" encoding="UTF-8"?>
<svg id="Layer_2" data-name="Layer 2" xmlns="http://www.w3.org/2000/svg" viewBox="0 0 366.67 418.17">
  <defs>
    <style>
      .cls-1, .cls-2, .cls-3, .cls-4, .cls-5 {
        stroke: #231f20;
      }

      .cls-1, .cls-2, .cls-3, .cls-4, .cls-5, .cls-6 {
        stroke-miterlimit: 10;
        stroke-width: 4.6px;
      }

      .cls-1, .cls-7 {
        fill: #231f20;
      }

      .cls-2 {
        fill: #b7a79f;
      }

      .cls-3 {
        fill: #a0cf6e;
      }

      .cls-4 {
        fill: #ad9282;
      }

      .cls-5 {
        fill: #f4ec48;
      }

      .cls-8 {
        fill: #fff;
      }

      .cls-8, .cls-7 {
        stroke-width: 0px;
      }

      .cls-6 {
        fill: none;
        stroke: #fff;
      }
    </style>
  </defs>
  <g id="Layer_1-2" data-name="Layer 1">
    <g>
      <path class="cls-4" d="M5.47,117.68c-8.88-7.89,2.62-23.89,13.14-19.16,13.2,8.53-.67,28.9-13.14,19.16Z"/>
      <g>
        <g>
          <path class="cls-7" d="M250.79,298.95c16.38,16.56,29.96,35.87,37.62,57.99,4.28,6.64,4.85,22.89,11.68,25.51,4.92-8.26-17.8-51.89-24.28-61.51-2.83-3.11-26.81-37.45-25.01-21.99h0Z"/>
          <path class="cls-7" d="M182.1,309.96c8.06,30.77,1.46,70.94,20.99,96.11,1.23-.34,2.2-1.8,1.75-3.08-4.94-13.87-10.14-27.87-11.72-42.61-.79-4.96-3.03-66.56-11.02-50.42h0Z"/>
          <path class="cls-3" d="M158.14,258.39c2.12,100.42-16.29,45.13,45.91,60.12,3.59-53.71,8.13-40.84,20.46,1.45,42.78-33.75,66.2,4.84,35.5-56.37-11.23-16.98-19.51-36.47-61.06-33.78-12.63,2.36-22.18,21.62-40.81,28.58h0Z"/>
          <path class="cls-5" d="M90.38,145.19c59.92,42.84,59.44,40.97,57.5,116.9,92.56-46.94,143.84,33.5,83.64-77.05,40.33,13.08,25.21,11.66,36.22-29.72-17.02-10.59-39.44-9.53-56.46-20.12-25.39,22.63-67.32,3.03-93.25-11-12.52-8.36-21.49,12.73-27.65,20.99h0Z"/>
          <path class="cls-7" d="M202.43,403.65c-8.7-15.36-95.24-20.25-70.92,7.44,22.47,11.74,51.38,8.61,70.92-7.44Z"/>
          <path class="cls-7" d="M300.14,380.9c10.83-20.08,33.23-40.29,55.86-44.06,10.65,21.1-37.8,47.76-56.25,43.96"/>
        </g>
        <g>
          <g>
            <g>
              <path class="cls-2" d="M227.21,40.09c14.83,32.61-4.7,79.78-38.93,91.07-137.22-1.21-60.4-212.93,38.93-91.07Z"/>
              <path class="cls-1" d="M201.73,88.61c17.18-5.89,15.47-43.67-5.17-44.22-24.18,1.73-22.98,51.59,5.17,44.22Z"/>
            </g>
            <path class="cls-7" d="M138.49,44.06c-15.42,12.04-18.74,47.71,5.27,47.6,36.27,5.09,25.81-61.4-5.27-47.6Z"/>
            <path class="cls-8" d="M148.31,87.09c26.47-5.51-9.04-28.7-15.76-15.31-.37,8.58,1.33,14.68,15.76,15.31Z"/>
            <path class="cls-8" d="M142.85,47.67c-13.82,6.45,4.34,13.24,9.27,6.95,5.33-5.93-5.86-8.44-9.27-6.95Z"/>
          </g>
          <path class="cls-8" d="M185.41,78.3c1.82,5.65,9.61,7.4,14.92,6.38,24.07-4.89-27.03-32.52-14.92-6.38Z"/>
          <path class="cls-8" d="M202.67,54.59c.36-15.77-28.88,4.46-7.12,6.34,3.64,0,5.95-3.11,7.12-6.34Z"/>
        </g>
        <path class="cls-7" d="M265.01,177.76c57.97,3.63,33.83,19.02,49.87-51.01.8-3.1-4-4.48-4.83-1.33.35,6.51-13.92,60.17-6.36,52.49-4.42-1.3-50.75-10.95-38.68-.15Z"/>
        <path class="cls-7" d="M94.24,130.13c-17.52-5.79-35.31-10.79-53.29-14.93-5.57-.05-14.34-6.06-18.44-1.58-.34,1.23.42,2.8,1.75,3.08,18.09,3.68,36,8.19,53.67,13.52,3.7.76,23.74,9.7,16.31-.09Z"/>
        <g>
          <g>
            <path class="cls-7" d="M287.26,99.98c-2.4,10.69-11.26,32.59,4.3,35.71,14.94,1.27,30.12,5.47,44.99,5.07,17.8-21.54,14.97-54.59,24.61-80.48,4.21-10.82,4.45-25.08-9.26-25.66-17.56-2.21-33.33-8.17-50.83-4.72-9.51,9.29-7.49,50.06-13.81,70.08h0Z"/>
            <path class="cls-7" d="M284.85,99.32c-4.28,13.58-11.25,40.52,11.17,39.47,13.99.68,28.73,6.39,42.44,3.83,18.05-22.11,15.46-54.85,24.91-81.03,14.18-33.11-20.69-30.69-42.81-34.49-15.86-2.7-27.57-.98-27.7,17.92-2.41,16.73-3.66,33.49-7.04,50.02-.29,1.43-.61,2.86-.98,4.28-.82,3.11,4,4.44,4.82,1.33,6.1-12,2.95-73.87,18.03-69.36,12.23.11,24.31,2.29,36.3,4.48,10.12.48,20.94,4.43,16.67,16.74-9.39,27.64-9.57,58.47-23.3,84.54-11.18,4.03-25.51-2.73-37.64-2.78-21.07,1.96-13.86-20.92-10.07-33.63.84-3.06-4.08-4.43-4.8-1.32h0Z"/>
          </g>
          <path class="cls-6" d="M347.93,74.29c-9.86.93-15.66-11.08-15.93-19.7,8.09,93.97-59.35,40.66-15.72,25.08"/>
        </g>
      </g>
    </g>
    <path class="cls-7" d="M156.36,110.73c3.88-.85,35.63,3.17,24.41-5-3.86.85-35.64-3.17-24.41,5Z"/>
  </g>
</svg>