
<svg id="human__blue" data-name="Layer 2" xmlns="http://www.w3.org/2000/svg" viewBox="0 0 296.58 427.11">
    <style>
      .cls-1, .cls-2 {
        stroke: #231f20;
      }

      .cls-1, .cls-2, .cls-3 {
        stroke-miterlimit: 10;
        stroke-width: 4.6px;
      }

      .cls-1, .cls-4 {
        fill: #231f20;
      }

      .cls-2 {
        fill: #fce0ce;
      }

      .cls-5 {
        fill: #04b1dc;
      }

      .cls-5, .cls-6, .cls-7, .cls-4 {
        stroke-width: 0px;
      }

      .cls-6 {
        fill: #fff;
      }

      .cls-7 {
        fill: #c87161;
      }

      .cls-3 {
        fill: none;
        stroke: #fff;
      }
    </style>
        <path class="cls-4" d="M168.8,305.44c2.95,11.2-3.59,115.08,6.64,102.25-1.72-11.44,4.21-113.87-6.64-102.25h0Z"/>
        <path class="cls-4" d="M171.89,408.82c13.44-2.22,28.47-12.01,41.32-5.06,5.6,21.28-31.41,14.82-41.32,5.06Z"/>
        <path class="cls-2" d="M275.79,112.36c-8.88-7.89,2.62-23.89,13.14-19.16,13.2,8.53-.67,28.9-13.14,19.16Z"/>
        <path class="cls-5" d="M73.17,148.3c-11.34,46.08,15.14,17.6,18.84,40.25-8.2,20.53-14.22,41.93-17.94,63.72,106.38-16.68,117.94,35.26,93.91-73.09,25.93-13.56,61.56-10.07,33.16-43.94-38.36,28.11-84.36,28.31-127.98,13.07h0Z"/>
        <path class="cls-4" d="M70.76,147.64c-2.86,28.42-9.67,27.29,18.95,36.95-2.89,21.2-21.9,50.05-15.64,70.2,35.46-5.67,79.85,1.79,111.15-7-8.54-18.06-9.55-57.62-16.54-66.18,14.52-8.4,39.53-10.64,48.82-22.62-6.16-7.32-8.88-23.27-17.59-25.89-37.8,27.75-82.95,27.92-126.07,12.82-13.1,8.31,44.21,13.98,51.28,15.13,28.62,5.13,53.4-10.44,77.32-23.61l-3.42-.9c4.65,4.66,12.26,29.34,15.66,21.31-15.78,6.32-31.55,12.64-47.33,18.96-4.63,5.85,10.23,78.4,15.47,69.15-36.26-.04-72.55,1.24-108.73,3.86l2.41,3.16c-1.48-19.51,24.94-62.12,14.83-73.24-4.35-1.67-23.17-10.97-18.83-4.12-.4-5.11,7.84-35.63-1.73-27.97h-.01Z"/>
        <path class="cls-4" d="M95.54,304.85c.06,37.79-2.04,75.56-3.77,113.3,9.67,10.25,4.76-36.39,6.97-42.93-1.77-9.42,8.32-80.54-3.2-70.37h0Z"/>
        <path class="cls-4" d="M94.96,419.5c-12.27-6.71-45.6-17.9-51.44.18,11.14,15.06,36.31,3.11,51.44-.18Z"/>
        <path class="cls-7" d="M60.71,319.1c151.67-26.09,154.51,46.13,123.4-68.89-27.02-12.9-72.65,1.1-105.21-2.27-8.48,1.17-14.74,64.36-18.19,71.16h0Z"/>
        <path class="cls-4" d="M60.71,321.6c47.44-4.06,97.68-11.98,143.56,1.36-1.68-19.69-10.48-41.48-14.39-61.88-1.83-11.59-6.36-21.7-19.96-18.09-19.71,4.37-91.52-6.09-97.87,8.92-17.06,68.08-16.01,109.2,3.92,6.09-2.21-16,67.87-5.75,83.01-9.71,10.04.68,24.14-5.37,24.7,9.16,6.13,11.16,10.3,67.03,20.34,61.39-10.09-11.52-154.49-10.2-143.31,2.77h0Z"/>
        <path class="cls-4" d="M209.13,147.53c19.74-14.08,50.16-21.53,65.65-37.14-2.57-4.05-85.1,37.49-65.65,37.14h0Z"/>
        <path class="cls-4" d="M72.95,160.13c-10.89-1.97-50.62-27.53-50.94-20.65,3.33-3.87,21.94-35.85,8.91-29.08-.82,10.7-13.81,21-12.33,29.97,6.5,2.01,62.53,34.62,54.35,19.75h.01Z"/>
        <path class="cls-2" d="M176.66,27.39c56.89,34.17,10.24,133.94-52.46,118.77C42.89,112.91,98.1-13.29,176.66,27.39Z"/>
        <path class="cls-1" d="M119.59,59.12c-20.64-.32-23.94,37.36-7.02,43.96,27.81,8.55,31.11-41.22,7.02-43.96Z"/>
        <path class="cls-4" d="M172.03,60.5c-26.78-2.65-32.57,49.29-1.78,46.52,24.04,1.86,21.28-40.75,1.78-46.52Z"/>
        <path class="cls-6" d="M165.99,103.81c-25.39-6.42,9.14-28.59,16.39-14.62,0,8.56-1.92,14.62-16.39,14.62Z"/>
        <path class="cls-6" d="M173.11,64.65c13.53,7.04-4.89,13.05-9.56,6.55-5.07-6.14,6.18-8.18,9.56-6.55Z"/>
        <path class="cls-6" d="M114.13,99.2c5.28,1.25,13.12-.17,15.18-5.74,13.19-25.61-39.02-.16-15.18,5.74Z"/>
        <path class="cls-6" d="M119.9,75.68c17.29-.2,2.57-17.1-5.43-11.04-4.1,3.51.84,10.97,5.43,11.04Z"/>
        <path class="cls-4" d="M131.67,119.85c5.23-1.2,33.35,3.84,24.41-5-5.21,1.2-33.37-3.84-24.41,5Z"/>
        <path class="cls-4" d="M7.32,74.11c-18.23,44.37,18.3,37.34,49.29,40.78,17.8-21.54,14.97-54.59,24.61-80.48,4.21-10.82,4.45-25.08-9.26-25.66C-.63-9.45,20.75,13.97,7.32,74.11h0Z"/>
        <path class="cls-4" d="M4.91,73.45c-18.66,47.95,19.46,41.42,53.61,43.3,18.05-22.11,15.46-54.85,24.91-81.03C98.06,4.79,61.88,3.79,40.62,1.23-1.1-9.19,15.5,49.32,4.9,73.45,15.66,87.3,14.13,14.49,21.25,7.25c17.51-4.24,41.56.83,58.28,7.41,5,8.47-1.46,18.89-3.18,27.6-6.2,22.89-7.25,47.87-18.93,68.92-11.18,4.03-25.51-2.73-37.64-2.78-21.07,1.96-13.86-20.92-10.07-33.63.84-3.06-4.08-4.43-4.8-1.32Z"/>
        <path class="cls-3" d="M68.24,48.77c-9.86.93-15.66-11.08-15.93-19.7,8.09,93.97-59.35,40.66-15.72,25.08"/>
</svg>