
<svg id="human__green" data-name="Layer 2" xmlns="http://www.w3.org/2000/svg" viewBox="0 0 404.45 559.3">
    <path class="cls-6" d="M277.18,429.55c6.75,17.49,25.95,27.69,32.92,44.32-3.58,9.63-7.19,19.3-9.98,29.21-.57,4.03-12.67,38-1.8,28.62,17.41-84.2,32.01-35.48-16.81-104.68-1.58-2.8-5.9-.3-4.33,2.53h0Z"/>
      <path class="cls-2" d="M10.67,312.11c-11.74-1.81-10.76-21.49.65-23.22,15.72.01,15.12,24.64-.65,23.22Z"/>
      <path class="cls-6" d="M187.61,555.24c-7.25-10.43-22.37-17.18-35.34-21.22-8.93-3.33-42.48-7.91-31.56,9.64,17.74,15.5,44.85,19.72,66.9,11.58h0Z"/>
      <path class="cls-6" d="M296.04,531.56c17.92-3.15,35.31-11.09,53.45-9.06,31.86,9.52-16.97,35.25-53.45,9.06Z"/>
      <path class="cls-4" d="M167.87,371.7c.74,18.57-2.14,46.35.29,64.51,22.82,5.7,47.79,5.4,71.44,6.96.34-12.55-1.39-25.16-5.12-37.16,33.64,38.72,4.15,27.1,74.06,16.94-5.68-25.09-7.89-52.59-15.19-76.83-44.38,3.72-82.21,13.83-125.48,25.58h0Z"/>
      <path class="cls-6" d="M24.09,302.43c26.9-2.29,54.89,7.17,79.93,9.32,5.59-9.03,14.01-16.35,23.83-20.46,3.06-.89,1.81-5.75-1.33-4.83-5.76-.31-34.12,25.82-24,21.61-5.27-3.37-93.8-19.14-78.43-5.64h0Z"/>
      <path class="cls-3" d="M117.22,276.4c10.99,46.34,11.86,36.42,40.77,8.74,1.46,31.13,2.92,62.25,4.37,93.38,136.52-53.62,158.1,25.12,115.53-115.07-2.1-5.66-1.28-11.49,2.6-16.15,30.5-51.63,54.14-36.53,14.07-77.6-21.91,17.37-41.8,38.03-64.95,53.56-86.21,1.93-52.25-12.21-112.39,53.14h0Z"/>
      <path class="cls-6" d="M306.67,183.74c11.66-7.25,17.39-11.18,14.97-25.98.02-11.08,1.07-22.16,3.17-33.04-.14-3.96,9.76-27.92-.25-19.73-6.41,20.65-8.61,42.4-7.71,63.91.02,4.29-23.23,13.76-10.18,14.84h0Z"/>
      <path class="cls-6" d="M194.95,442.63c-3.99,37.14-7.26,74.36-9.84,111.63-.09,1.35,1.22,2.5,2.5,2.5,8.95-34.44,6.11-77.11,12.34-114.14.05-3.2-5-3.26-5,0h0Z"/>
      <path class="cls-2" d="M242.29,87.74c58.87,30.64,18.37,133.07-45.13,121.74-83.37-31.93-38.09-155.11,45.13-121.74h0Z"/>
     <path class="cls-1" d="M187.26,122.88c-20.62.93-21.62,38.74-4.33,44.31,28.28,6.84,28.54-43.03,4.33-44.31Z"/>
      <path class="cls-6" d="M239.68,121.07c-26.89-1.02-29.51,51.18,1.06,46.54,24.11.39,18.76-41.96-1.06-46.54Z"/>
      <path class="cls-8" d="M236.29,164.66c-26.9-5.37,9.23-28.78,15.47-15.59.53,8.54-1.06,14.74-15.47,15.59Z"/>
      <path class="cls-8" d="M241.02,125.15c13.94,6.19-4.09,13.32-9.14,7.12-5.43-5.82,5.66-8.55,9.14-7.12Z"/>
      <path class="cls-8" d="M184.24,163.22c5.34.94,13.08-.98,14.8-6.66,11.61-26.36-38.95,2.22-14.8,6.66Z"/>
      <path class="cls-8" d="M188.57,139.39c21.71-2.3-7.89-21.97-7.23-6.21,1.22,3.21,3.59,6.27,7.23,6.21Z"/>
       <path class="cls-6" d="M202.86,182.77c8.12-.5,16.24-.99,24.36-1.49,11.2-8.81-20.44-2.92-24.36-3.51-3.2.19-3.22,5.2,0,5h0Z"/>
      <path class="cls-7" d="M310.74,62.31c-6.1,9.1-22.26,26.34-8.88,34.85,13.47,6.58,26.11,15.97,40.13,20.96,24.38-13.68,33.65-45.51,51.98-66.19,5.24-6.5,11.36-15.35,6.7-22.28-69.08-48.34-50.18-27.68-89.93,32.66h0Z"/>
      <path class="cls-6" d="M308.58,61.04c-13.46,17.28-24.47,34.6,2.99,44.28,11.81,3.8,25.23,21.27,37.49,12.14,18.23-16.51,28.57-39.48,43.04-59,27.99-29.51,3.04-36.58-21.81-51-13.97-8.07-26.75-13.55-34.28,5.22-8.35,14.78-15.67,30.21-24.83,44.54-.83,1.3-1.68,2.58-2.59,3.83-1.66,2.76,2.66,5.31,4.32,2.52,11.96-17.39,20.2-37.06,31.37-54.94.89-1.17,2.5-3.5,4.91-4.2,14.28,2.62,26.89,12.63,39.43,19.58,12.65,4.78,14.11,14.75,5.03,24.35-18.43,21.05-28.24,50.85-51.26,67.26-12.31-4.32-23.46-12.69-35.32-18.44-17.52-6.03-.44-24.52,5.83-33.6,1.71-2.81-2.71-5.25-4.32-2.54h0Z"/>
      <path class="cls-5" d="M377.5,60.74c-9.44-2.98-10.12-16.29-7.02-24.34-29.06,89.73-70.49,14.4-24.23,17"/>
</svg>