<?xml version="1.0" encoding="UTF-8"?>
<svg id="Layer_2" data-name="Layer 2" xmlns="http://www.w3.org/2000/svg" viewBox="0 0 394.34 383.06">
  <defs>
    <style>
      .cls-1 {
        fill: #eaeae8;
        stroke-width: 4.21px;
      }

      .cls-1, .cls-2, .cls-3 {
        stroke: #231f20;
        stroke-miterlimit: 10;
      }

      .cls-2 {
        fill: #b4b7b8;
      }

      .cls-2, .cls-3 {
        stroke-width: 4.6px;
      }

      .cls-3 {
        fill: #f4ec48;
      }

      .cls-4 {
        fill: #fff;
      }

      .cls-4, .cls-5 {
        stroke-width: 0px;
      }

      .cls-5 {
        fill: #231f20;
      }
    </style>
  </defs>
  <g id="Layer_1-2" data-name="Layer 1">
    <g>
      <path class="cls-1" d="M135.15,373.57c108.96,33.07,236.84-49.03,256.82-162.4C402.68,5.15,87.19-85.88,13.95,112.52c-40.87,97.52,30.03,223.83,121.2,261.05h0Z"/>
      <g>
        <g>
          <path class="cls-3" d="M103.21,77.31c-59.6-.93-69.12,107.84-20.28,126.92,80.3,24.68,89.8-118.99,20.28-126.92Z"/>
          <path class="cls-5" d="M103.21,77.31c69.53,7.94,60.02,151.6-20.27,126.91-48.86-19.07-39.32-127.83,20.27-126.91h0ZM100.99,195.31c10.61-2.72,26.68-6.44,30.27-18.86,40.2-78.03-129.94,8.15-30.27,18.86h0ZM104.1,125.12c54.32-.64-.84-58.39-21.28-25.58,1.82,11.18,8.37,25.02,21.28,25.58Z"/>
          <path class="cls-4" d="M100.99,195.31c-99.67-10.71,70.46-96.89,30.26-18.86-3.58,12.42-19.65,16.14-30.26,18.86h0Z"/>
          <path class="cls-4" d="M104.1,125.12c-26.93-5.15-27.78-41.74,4.52-35.25,23.03,14.21,28.76,33.55-4.52,35.25Z"/>
        </g>
        <path class="cls-5" d="M266.98,56.92c-82.07-6.34-92.09,151.03,2.47,133.77,62.2-2.52,50.69-118.76-2.47-133.77h0Z"/>
        <path class="cls-4" d="M249.56,181.95c-73.3-18.51,26.34-82.53,47.31-42.21,0,24.71-5.57,42.25-47.31,42.21Z"/>
        <path class="cls-4" d="M270.11,68.9c28.25,14.4,8.53,27.24-9.56,27.21-7.71,0-12.9-3.7-18.04-8.32-5.7-5.11-4.08-15.35,2.91-17.73,8.31-2.83,19.11-3.44,24.69-1.16h0Z"/>
      </g>
      <path class="cls-5" d="M222.78,230.57c12.84-2.37,24.77-9.43,33.01-19.55.85-1.05,1.02-2.51,0-3.54-.88-.88-2.68-1.05-3.54,0-7.77,9.55-18.7,16.03-30.81,18.27-3.13.9-1.89,5.6,1.34,4.82h0Z"/>
    </g>
    <path class="cls-2" d="M298.97,295.66c-10.05,32.34-69.89,40.18-70.79,10.59.73-33.5,76.99-60.45,70.79-10.59Z"/>
    <path class="cls-2" d="M86.22,259.92c-13.51-16.4-49.72-48.02-48.61-3.18,4.63,18.41,33.2,58.59,49.62,38.6,24.93,22.35,22.71-25.13-1.01-35.41h0Z"/>
    <path class="cls-2" d="M119.92,27.74c12.53-19.62,54.71-17.57,50.13,1.59-4.34,10.8-23.55,20.96-37.1,19.95-11.18-1.72-19.82-11.8-13.03-21.54Z"/>
    <path class="cls-2" d="M126.48,353.62c7.17,6.63,23.94,9.96,32.59,8.33,31.65-21.64-59.06-35.61-32.59-8.33Z"/>
    <path class="cls-2" d="M359.09,199.69c9.77-12.49,22.42,7.68,15.29,23.18-4.57,7.98-13.63,8.92-17.59,2.14-3-6.42-2.72-19.37,2.3-25.32h0Z"/>
  </g>
</svg>