
<svg id="ntnu__logo" data-name="Layer 2" xmlns="http://www.w3.org/2000/svg" viewBox="0 0 270.26 44.74">
          <path class="cls-1" d="M33.08,0H11.02C4.94,0,0,4.94,0,11.02v22.06c0,6.08,4.94,11.02,11.02,11.02h22.06c6.09,0,11.02-4.94,11.02-11.02V11.02c0-6.09-4.93-11.02-11.02-11.02ZM33.08,33.08H11.02V11.02h22.06v22.06Z"/>
          <path class="cls-1" d="M21.98,12.93c-5,0-9.05,4.05-9.05,9.05s4.05,9.05,9.05,9.05,9.05-4.05,9.05-9.05-4.05-9.05-9.05-9.05Z"/>
          <path class="cls-1" d="M74.96.05l21.48,31.22V7.25l-.06-5.71h-6.45V.05h13.84v1.49h-5.34l-.06,5.71v37.18l-.99.31L68.56,2.84v33.65l.06,5.9h6.64v1.49h-14.34v-1.49h5.71l.06-5.9V7.25l-.06-5.71h-5.71V.05h14.04Z"/>
          <path class="cls-1" d="M146.6.05v14.03h-1.86c-.19-2.17-.44-4.9-2.36-8.13-2.23-3.79-5.28-3.97-8.26-4.1h-3.48l-.06,5.59v28.62l.06,6.33h6.71v1.49h-20.36v-1.49h6.7l.06-6.33V7.43l-.06-5.59h-2.86c-3.6.06-6.33.06-8.94,4.22-2.05,3.29-2.23,5.9-2.36,8.01h-1.8V.05h38.87Z"/>
          <path class="cls-1" d="M164.23.05l21.48,31.22V7.25l-.06-5.71h-6.46V.05h13.84v1.49h-5.34l-.06,5.71v37.18l-.99.31L157.83,2.84v33.65l.06,5.9h6.64v1.49h-14.34v-1.49h5.71l.06-5.9V7.25l-.06-5.71h-5.71V.05h14.04Z"/>
          <path class="cls-1" d="M217.13.05v1.49h-6.15l-.06,5.28v23.72c.06,6.15.19,11.98,11.73,11.98s12.41-5.09,12.6-10.62V6.81l-.06-5.28h-6.27V.05h13.71v1.49h-5.4l-.06,5.28v22.6c-.06,8.13-.13,15.08-16.2,15.08-2.29,0-7.76-.25-11.23-1.68-5.53-2.36-5.65-7.2-5.71-13.16V6.81l-.06-5.28h-5.34V.05h18.5,0Z"/>
          <path class="cls-1" d="M269.76,43.91c-.28,0-.5-.22-.5-.5V.55c0-.28.22-.5.5-.5s.5.22.5.5v42.86c0,.28-.22.5-.5.5Z"/>
</svg>