
<svg id="ntnu__logo" data-name="Layer 2" xmlns="http://www.w3.org/2000/svg" viewBox="0 0 181.7 44.7">
    <style>
      .cls-1 {
        fill: #fff;
        stroke-width: 0px;
      }
    <path class="cls-1" d="M14.02.01l21.48,31.22c0-4.27.03-25.97-.06-29.73h-6.45V.01h13.84v1.49h-5.34c-.1,2.37-.05,39.32-.06,42.89l-.99.31L7.64,2.79c0,4.15-.04,36.34.06,39.55h6.64v1.49H0v-1.49h5.71c.09-8.05.1-32.79,0-40.85H0V0h14.03-.01Z"/>
    <path class="cls-1" d="M85.66.01v14.03h-1.86c.31-7.78-6.17-13.92-14.1-12.23-.1,8.24-.09,32.33,0,40.54h6.71v1.49h-20.36v-1.49h6.7c.09-8.2.1-32.31,0-40.54-7.87-1.74-14.58,4.58-14.16,12.23h-1.8V.01h38.87,0Z"/>
    <path class="cls-1" d="M103.29.01l21.48,31.22c0-4.27.03-25.97-.06-29.73h-6.46V.01h13.84v1.49h-5.34c-.1,2.37-.05,39.32-.06,42.89l-.99.31L96.9,2.79c0,4.15-.04,36.34.06,39.55h6.64v1.49h-14.34v-1.49h5.71c.09-8.05.1-32.79,0-40.85h-5.71V0h14.03Z"/>
    <path class="cls-1" d="M156.2.01v1.49h-6.15c-.16,3.23,0,25.24-.06,29,.06,6.15.19,11.98,11.73,11.98s12.41-5.09,12.6-10.62c-.07-3.87.08-27.05-.06-30.36h-6.27V.01h13.71v1.49h-5.4c0,3.27-.13,24.12-.06,27.88-.06,8.13-.13,15.08-16.2,15.08-8.68.8-19.03-3.4-16.94-14.84.07-3.88-.03-24.72-.06-28.13h-5.34V0h18.5Z"/>
</svg>